<svg width="180" height="140" viewBox="0 0 180 140" fill="none" xmlns="http://www.w3.org/2000/svg">
<path d="M54.655 96.5C54.1839 104.623 55.0687 127.816 55.1481 129.856C55.1523 129.962 55.1718 130.051 55.2305 130.14C55.4127 130.415 55.9688 131 57.4038 131C58.6928 131 59.2909 130.484 59.5256 130.193C59.6216 130.074 59.6518 129.934 59.6474 129.781C59.5755 127.283 58.9213 104.174 59.1538 98.5C59.3996 92.5 60.1286 90.5 60.6621 88.5C61.7462 84.436 63.7621 80 64.6621 78.5C65.5621 77 67.8424 73 71.1621 70C73.1814 68.1752 76.5831 65.4992 78.2228 64.2255C78.4009 64.0871 78.2579 63.819 78.0464 63.8974C75.336 64.9027 68.3566 67.737 64.662 71.5C59.162 77.1019 57.6621 82.5 57.1538 84C56.6454 85.5 54.9766 90.9555 54.655 96.5Z" fill="#C8E8CB"/>
<path d="M47.655 69.498C47.1782 77.7193 48.0903 126.635 48.1506 129.834C48.1528 129.947 48.1731 130.053 48.2365 130.147C48.4247 130.426 48.9842 130.998 50.4038 130.998C51.7023 130.998 52.2997 130.474 52.5307 130.185C52.6229 130.069 52.6529 129.941 52.6509 129.793C52.6007 126.23 51.9169 77.2792 52.1538 71.498C52.3996 65.498 53.1286 63.498 53.6621 61.498C54.7462 57.4341 56.7621 52.998 57.6621 51.498C58.5621 49.998 60.8424 45.998 64.1621 42.998C65.0838 42.1652 66.2934 41.1549 67.4921 40.1817C68.3677 39.4707 67.6729 38.2515 66.6493 38.7252C63.6067 40.1331 59.985 42.132 57.662 44.498C52.162 50.1 50.6621 55.498 50.1538 56.998C49.6454 58.498 47.9766 63.9535 47.655 69.498Z" fill="#C8E8CB"/>
<path d="M46.0247 96.5C46.4958 104.623 45.611 127.816 45.5316 129.856C45.5274 129.962 45.5079 130.051 45.4492 130.14C45.267 130.415 44.7108 131 43.2759 131C41.9869 131 41.3888 130.484 41.1541 130.193C41.058 130.074 41.0279 129.934 41.0323 129.781C41.1042 127.283 41.7584 104.174 41.5259 98.5C41.2801 92.5 40.5511 90.5 40.0176 88.5C38.9335 84.436 36.9176 80 36.0176 78.5C35.1176 77 32.8373 73 29.5176 70C27.4983 68.1752 24.0965 65.4992 22.4569 64.2255C22.2788 64.0871 22.4217 63.819 22.6332 63.8974C25.3437 64.9027 32.3231 67.737 36.0177 71.5C41.5177 77.1019 43.0176 82.5 43.5259 84C44.0343 85.5 45.7031 90.9555 46.0247 96.5Z" fill="#C8E8CB"/>
<path d="M67.0366 43.0646C71.7654 40.6813 76.7355 40.549 79.0484 40.6478C79.7157 40.6763 80.0895 41.3537 79.7568 41.9328C78.7142 43.7479 76.3582 47.2087 72.6804 49.1051C68.234 51.398 63.1031 51.7283 60.7481 51.746C60.0892 51.7509 59.6724 51.1128 59.9604 50.5202C60.8643 48.6598 63.0293 45.0844 67.0366 43.0646Z" fill="#C8E8CB"/>
<path d="M63.5718 30.7842C65.633 27.3133 68.8189 25.2314 70.494 24.3155C71.0561 24.0081 71.7016 24.3627 71.7422 25.0021C71.853 26.7441 71.7909 30.0086 70.2035 32.7428C68.2894 36.0399 65.0934 38.3068 63.439 39.3252C62.8995 39.6573 62.2361 39.3574 62.1533 38.7293C61.9267 37.0099 61.8202 33.7337 63.5718 30.7842Z" fill="#C8E8CB"/>
<path d="M59.9672 38.13C58.0411 43.1007 54.3543 46.5047 52.5551 47.9468C52.0426 48.3577 51.3253 48.1086 51.178 47.4684C50.7067 45.4205 50.0642 41.1955 51.5362 37.2869C53.3097 32.5779 56.976 28.9149 58.7277 27.3551C59.2121 26.9237 59.9364 27.114 60.1256 27.7345C60.7324 29.7236 61.6039 33.9062 59.9672 38.13Z" fill="#C8E8CB"/>
<path d="M76.1236 31.2179C80.5211 29.5801 84.9308 30.2062 86.955 30.6517C87.5609 30.785 87.8269 31.4439 87.4854 31.962C86.4219 33.5757 84.0187 36.6822 80.5645 38.0098C76.436 39.5966 71.8785 39.1491 69.7996 38.812C69.1927 38.7136 68.8793 38.0839 69.1809 37.5481C70.1251 35.8705 72.363 32.6185 76.1236 31.2179Z" fill="#C8E8CB"/>
<path d="M62.2195 53.1727C66.1307 51.9305 69.9556 52.8115 71.732 53.3761C72.294 53.5547 72.5079 54.1899 72.1733 54.6754C71.1663 56.1364 68.9207 58.9149 65.8303 59.935C62.162 61.1458 58.2093 60.4259 56.3755 59.9605C55.8072 59.8163 55.5459 59.204 55.8444 58.6993C56.7491 57.1693 58.8565 54.2408 62.2195 53.1727Z" fill="#C8E8CB"/>
<path d="M42.299 49.9174C42.8002 53.9904 45.1954 57.1 46.4491 58.4793C46.8457 58.9157 47.5122 58.8453 47.814 58.3388C48.7224 56.8145 50.3119 53.615 49.9509 50.3807C49.5224 46.5416 47.2204 43.2488 46.033 41.7759C45.6651 41.3194 44.9996 41.3372 44.6652 41.8188C43.6516 43.279 41.8681 46.4153 42.299 49.9174Z" fill="#C8E8CB"/>
<path d="M61.9631 15.193C45.1187 15.2975 31.5484 29.0373 31.6529 45.8816" stroke="#F0F0F0" stroke-width="2" stroke-linecap="round"/>
<path d="M98.9627 34.8064C92.571 14.8166 71.1846 3.79305 51.1948 10.1847C31.205 16.5764 20.1815 37.9628 26.5731 57.9526" stroke="#F0F0F0" stroke-width="2" stroke-linecap="round"/>
<path d="M74.4269 105.336C73.1016 105.336 71.8696 105.093 70.7309 104.608C69.6109 104.123 68.6402 103.451 67.8189 102.592C67.0162 101.715 66.4282 100.697 66.0549 99.54L69.2189 98.168C69.7229 99.3627 70.4509 100.305 71.4029 100.996C72.3549 101.668 73.4282 102.004 74.6229 102.004C75.2949 102.004 75.8736 101.901 76.3589 101.696C76.8629 101.472 77.2456 101.173 77.5069 100.8C77.7869 100.427 77.9269 99.9787 77.9269 99.456C77.9269 98.84 77.7402 98.336 77.3669 97.944C77.0122 97.5333 76.4709 97.216 75.7429 96.992L71.7389 95.704C70.1149 95.2 68.8922 94.444 68.0709 93.436C67.2496 92.428 66.8389 91.2427 66.8389 89.88C66.8389 88.6853 67.1282 87.6307 67.7069 86.716C68.3042 85.8013 69.1256 85.092 70.1709 84.588C71.2349 84.0653 72.4482 83.804 73.8109 83.804C75.0616 83.804 76.2096 84.028 77.2549 84.476C78.3002 84.9053 79.1962 85.512 79.9429 86.296C80.7082 87.0613 81.2776 87.9667 81.6509 89.012L78.5149 90.412C78.1042 89.3667 77.4882 88.564 76.6669 88.004C75.8456 87.4253 74.8936 87.136 73.8109 87.136C73.1762 87.136 72.6162 87.248 72.1309 87.472C71.6456 87.6773 71.2629 87.976 70.9829 88.368C70.7216 88.7413 70.5909 89.1893 70.5909 89.712C70.5909 90.2907 70.7776 90.804 71.1509 91.252C71.5242 91.6813 72.0936 92.0173 72.8589 92.26L76.6949 93.464C78.3562 94.0053 79.5976 94.752 80.4189 95.704C81.2589 96.656 81.6789 97.832 81.6789 99.232C81.6789 100.427 81.3709 101.481 80.7549 102.396C80.1389 103.311 79.2896 104.029 78.2069 104.552C77.1242 105.075 75.8642 105.336 74.4269 105.336ZM84.7998 105V89.768H88.4678V105H84.7998ZM84.7998 88.06V84.14H88.4678V88.06H84.7998ZM91.8545 105V89.768H95.2985V93.296L94.9065 92.708C95.1865 91.6067 95.7465 90.7853 96.5865 90.244C97.4265 89.7027 98.4158 89.432 99.5545 89.432C100.805 89.432 101.906 89.7587 102.858 90.412C103.81 91.0653 104.426 91.924 104.706 92.988L103.67 93.072C104.137 91.8587 104.837 90.9533 105.77 90.356C106.704 89.74 107.777 89.432 108.99 89.432C110.073 89.432 111.034 89.6747 111.874 90.16C112.733 90.6453 113.405 91.3267 113.89 92.204C114.376 93.0627 114.618 94.0613 114.618 95.2V105H110.95V96.068C110.95 95.396 110.829 94.8173 110.586 94.332C110.344 93.8467 110.008 93.4733 109.578 93.212C109.149 92.932 108.626 92.792 108.01 92.792C107.432 92.792 106.918 92.932 106.47 93.212C106.022 93.4733 105.677 93.8467 105.434 94.332C105.192 94.8173 105.07 95.396 105.07 96.068V105H101.402V96.068C101.402 95.396 101.281 94.8173 101.038 94.332C100.796 93.8467 100.45 93.4733 100.002 93.212C99.5732 92.932 99.0598 92.792 98.4625 92.792C97.8838 92.792 97.3705 92.932 96.9225 93.212C96.4745 93.4733 96.1292 93.8467 95.8865 94.332C95.6438 94.8173 95.5225 95.396 95.5225 96.068V105H91.8545ZM117.722 110.6V89.768H121.166V92.792L120.83 92.036C121.352 91.2147 122.062 90.58 122.958 90.132C123.854 89.6653 124.89 89.432 126.066 89.432C127.503 89.432 128.8 89.7867 129.958 90.496C131.115 91.2053 132.03 92.1573 132.702 93.352C133.392 94.5467 133.738 95.8907 133.738 97.384C133.738 98.8587 133.402 100.203 132.73 101.416C132.058 102.629 131.143 103.591 129.986 104.3C128.828 104.991 127.512 105.336 126.038 105.336C124.936 105.336 123.919 105.121 122.986 104.692C122.071 104.244 121.343 103.609 120.802 102.788L121.39 102.06V110.6H117.722ZM125.618 101.976C126.458 101.976 127.204 101.78 127.858 101.388C128.511 100.996 129.015 100.455 129.37 99.764C129.743 99.0733 129.93 98.28 129.93 97.384C129.93 96.488 129.743 95.704 129.37 95.032C129.015 94.3413 128.511 93.8 127.858 93.408C127.204 92.9973 126.458 92.792 125.618 92.792C124.815 92.792 124.087 92.988 123.434 93.38C122.799 93.772 122.295 94.3227 121.922 95.032C121.567 95.7227 121.39 96.5067 121.39 97.384C121.39 98.28 121.567 99.0733 121.922 99.764C122.295 100.455 122.799 100.996 123.434 101.388C124.087 101.78 124.815 101.976 125.618 101.976ZM141.966 105.336C140.79 105.336 139.764 105.075 138.886 104.552C138.028 104.029 137.365 103.301 136.898 102.368C136.45 101.435 136.226 100.343 136.226 99.092V89.768H139.894V98.784C139.894 99.4187 140.016 99.9787 140.258 100.464C140.52 100.931 140.884 101.304 141.35 101.584C141.836 101.845 142.377 101.976 142.974 101.976C143.572 101.976 144.104 101.845 144.57 101.584C145.037 101.304 145.401 100.921 145.662 100.436C145.924 99.9507 146.054 99.372 146.054 98.7V89.768H149.722V105H146.25V102.004L146.558 102.536C146.204 103.469 145.616 104.169 144.794 104.636C143.992 105.103 143.049 105.336 141.966 105.336ZM153.132 105V83.804H156.8V105H153.132ZM65.2709 130L72.4669 109.14H77.3949L84.5909 130H80.4469L78.9629 125.52H70.8989L69.3869 130H65.2709ZM71.9909 122.16H77.8709L74.3989 111.772H75.4629L71.9909 122.16ZM93.4496 136.16C92.3109 136.16 91.2563 135.973 90.2856 135.6C89.3149 135.227 88.4749 134.704 87.7656 134.032C87.0749 133.379 86.5709 132.604 86.2536 131.708L89.6696 130.42C89.8936 131.129 90.3323 131.699 90.9856 132.128C91.6576 132.576 92.4789 132.8 93.4496 132.8C94.1963 132.8 94.8496 132.66 95.4096 132.38C95.9883 132.1 96.4363 131.689 96.7536 131.148C97.0709 130.625 97.2296 129.991 97.2296 129.244V125.772L97.9296 126.612C97.4069 127.527 96.7069 128.217 95.8296 128.684C94.9523 129.151 93.9536 129.384 92.8336 129.384C91.4149 129.384 90.1456 129.057 89.0256 128.404C87.9056 127.751 87.0283 126.855 86.3936 125.716C85.7589 124.577 85.4416 123.299 85.4416 121.88C85.4416 120.443 85.7589 119.164 86.3936 118.044C87.0283 116.924 87.8963 116.047 88.9976 115.412C90.0989 114.759 91.3496 114.432 92.7496 114.432C93.8883 114.432 94.8869 114.675 95.7456 115.16C96.6229 115.627 97.3509 116.308 97.9296 117.204L97.4256 118.128V114.768H100.898V129.244C100.898 130.569 100.571 131.755 99.9176 132.8C99.2829 133.845 98.4056 134.667 97.2856 135.264C96.1843 135.861 94.9056 136.16 93.4496 136.16ZM93.2816 125.996C94.0656 125.996 94.7469 125.828 95.3256 125.492C95.9229 125.137 96.3896 124.652 96.7256 124.036C97.0616 123.42 97.2296 122.711 97.2296 121.908C97.2296 121.124 97.0523 120.424 96.6976 119.808C96.3616 119.173 95.8949 118.679 95.2976 118.324C94.7189 117.969 94.0469 117.792 93.2816 117.792C92.5163 117.792 91.8256 117.969 91.2096 118.324C90.5936 118.679 90.1083 119.173 89.7536 119.808C89.4176 120.424 89.2496 121.124 89.2496 121.908C89.2496 122.692 89.4176 123.392 89.7536 124.008C90.1083 124.624 90.5843 125.109 91.1816 125.464C91.7976 125.819 92.4976 125.996 93.2816 125.996ZM104.323 130V114.768H107.767V118.156L107.487 117.652C107.842 116.513 108.393 115.72 109.139 115.272C109.905 114.824 110.819 114.6 111.883 114.6H112.779V117.848H111.463C110.418 117.848 109.578 118.175 108.943 118.828C108.309 119.463 107.991 120.359 107.991 121.516V130H104.323ZM122.244 130.336C120.751 130.336 119.388 129.991 118.156 129.3C116.943 128.609 115.972 127.667 115.244 126.472C114.535 125.277 114.18 123.915 114.18 122.384C114.18 120.853 114.535 119.491 115.244 118.296C115.972 117.101 116.943 116.159 118.156 115.468C119.369 114.777 120.732 114.432 122.244 114.432C123.737 114.432 125.091 114.777 126.304 115.468C127.517 116.159 128.479 117.101 129.188 118.296C129.916 119.472 130.28 120.835 130.28 122.384C130.28 123.915 129.916 125.277 129.188 126.472C128.46 127.667 127.489 128.609 126.276 129.3C125.063 129.991 123.719 130.336 122.244 130.336ZM122.244 126.976C123.065 126.976 123.784 126.78 124.4 126.388C125.035 125.996 125.529 125.455 125.884 124.764C126.257 124.055 126.444 123.261 126.444 122.384C126.444 121.488 126.257 120.704 125.884 120.032C125.529 119.341 125.035 118.8 124.4 118.408C123.784 117.997 123.065 117.792 122.244 117.792C121.404 117.792 120.667 117.997 120.032 118.408C119.397 118.8 118.893 119.341 118.52 120.032C118.165 120.704 117.988 121.488 117.988 122.384C117.988 123.261 118.165 124.055 118.52 124.764C118.893 125.455 119.397 125.996 120.032 126.388C120.667 126.78 121.404 126.976 122.244 126.976Z" fill="#F0F0F0"/>
</svg>
