<svg width="20" height="20" viewBox="0 0 20 20" fill="none" xmlns="http://www.w3.org/2000/svg">
<path d="M8.75015 12.7082C8.58936 12.6959 8.43979 12.6211 8.33348 12.4998L5.83348 9.99982C5.77778 9.88319 5.75961 9.75217 5.78146 9.62478C5.80332 9.4974 5.86413 9.37992 5.95552 9.28853C6.04691 9.19714 6.16439 9.13633 6.29177 9.11447C6.41916 9.09262 6.55019 9.11079 6.66681 9.16649L8.72515 11.2248L15.8335 4.16649C15.9501 4.11079 16.0811 4.09261 16.2085 4.11447C16.3359 4.13633 16.4534 4.19714 16.5448 4.28853C16.6362 4.37992 16.697 4.4974 16.7188 4.62478C16.7407 4.75217 16.7225 4.88319 16.6668 4.99982L9.16681 12.4998C9.06051 12.6211 8.91093 12.6959 8.75015 12.7082Z" fill="#1B5E20"/>
<path d="M10.0001 17.5001C8.65965 17.498 7.34427 17.1366 6.19086 16.4537C5.03745 15.7707 4.08815 14.7911 3.44176 13.6168C2.95108 12.7415 2.64746 11.7739 2.55009 10.7751C2.39757 9.31021 2.67977 7.8328 3.36146 6.5272C4.04316 5.2216 5.09418 4.14562 6.38342 3.43348C7.25873 2.9428 8.22637 2.63918 9.22509 2.54181C10.2202 2.4357 11.2265 2.53208 12.1834 2.82514C12.2688 2.8422 12.3497 2.87691 12.4209 2.92705C12.4921 2.97719 12.552 3.04165 12.5968 3.1163C12.6416 3.19094 12.6703 3.27413 12.6811 3.36053C12.6919 3.44693 12.6846 3.53463 12.6595 3.61801C12.6344 3.70139 12.5922 3.77861 12.5355 3.84473C12.4789 3.91084 12.409 3.96439 12.3305 4.00193C12.2519 4.03948 12.1664 4.0602 12.0794 4.06276C11.9923 4.06532 11.9057 4.04967 11.8251 4.01681C11.0157 3.77297 10.1656 3.69363 9.32509 3.78348C8.49411 3.86787 7.68894 4.1202 6.95842 4.52514C6.25437 4.91356 5.63188 5.43419 5.12509 6.05848C4.60331 6.69444 4.21367 7.42813 3.979 8.21657C3.74432 9.00502 3.66934 9.83236 3.75842 10.6501C3.84282 11.4811 4.09514 12.2863 4.50009 13.0168C4.88851 13.7209 5.40914 14.3434 6.03342 14.8501C6.66939 15.3719 7.40308 15.7616 8.19152 15.9962C8.97996 16.2309 9.8073 16.3059 10.6251 16.2168C11.4561 16.1324 12.2612 15.8801 12.9918 15.4751C13.6958 15.0867 14.3183 14.5661 14.8251 13.9418C15.3469 13.3058 15.7365 12.5722 15.9712 11.7837C16.2059 10.9953 16.2808 10.1679 16.1918 9.35015C16.1752 9.17665 16.2282 9.00367 16.3392 8.86927C16.4501 8.73487 16.6099 8.65005 16.7834 8.63348C16.9569 8.6169 17.1299 8.66993 17.2643 8.78088C17.3987 8.89184 17.4835 9.05165 17.5001 9.22514C17.6518 10.691 17.3684 12.169 16.6852 13.4747C16.0019 14.7804 14.9492 15.8558 13.6584 16.5668C12.7738 17.0776 11.7912 17.3956 10.7751 17.5001H10.0001Z" fill="#1B5E20"/>
</svg>
