<svg width="20" height="20" viewBox="0 0 20 20" fill="none" xmlns="http://www.w3.org/2000/svg">
<path d="M7.5 4.16667V5.41667M7.5 4.16667V2.5M7.5 4.16667H12.5M7.5 4.16667C4.73858 4.16667 2.5 6.40524 2.5 9.16666V10.8333C2.5 12.3833 2.5 13.1583 2.67037 13.7941C3.13271 15.5196 4.48044 16.8673 6.2059 17.3296C6.84174 17.5 7.61671 17.5 9.16667 17.5H12.5C15.2614 17.5 17.5 15.2614 17.5 12.5M12.5 4.16667H12.5833C15.2987 4.16667 17.5 6.36793 17.5 9.08333V9.16667M12.5 4.16667V2.5M12.5 4.16667V5.41667" stroke="#1D1D1D" stroke-width="1.5" stroke-linecap="round" stroke-linejoin="round"/>
</svg>
