<svg width="28" height="28" viewBox="0 0 28 28" fill="none" xmlns="http://www.w3.org/2000/svg">
<path d="M5.12106 6.9246C5.2969 6.15082 5.73045 5.45976 6.35062 4.96475C6.97079 4.46973 7.74076 4.20015 8.53426 4.2002H19.4641C20.2576 4.20015 21.0275 4.46973 21.6477 4.96475C22.2679 5.45976 22.7014 6.15082 22.8773 6.9246L25.1033 16.7246C25.2197 17.2368 25.2193 17.7687 25.1021 18.2808C24.985 18.7929 24.754 19.272 24.4265 19.6827C24.0989 20.0934 23.6831 20.425 23.2099 20.6531C22.7367 20.8812 22.2182 20.9998 21.6929 21.0002H6.30686C5.78131 21.0002 5.26251 20.8819 4.78894 20.654C4.31537 20.4261 3.89921 20.0945 3.57133 19.6838C3.24345 19.2731 3.01227 18.7938 2.89496 18.2815C2.77764 17.7692 2.7772 17.2371 2.89366 16.7246L5.12106 6.9246ZM7.69986 22.4002C7.51421 22.4002 7.33616 22.4739 7.20488 22.6052C7.07361 22.7365 6.99986 22.9145 6.99986 23.1002C6.99986 23.2858 7.07361 23.4639 7.20488 23.5952C7.33616 23.7264 7.51421 23.8002 7.69986 23.8002H20.2999C20.4855 23.8002 20.6636 23.7264 20.7948 23.5952C20.9261 23.4639 20.9999 23.2858 20.9999 23.1002C20.9999 22.9145 20.9261 22.7365 20.7948 22.6052C20.6636 22.4739 20.4855 22.4002 20.2999 22.4002H7.69986Z" fill="#1D1D1D"/>
</svg>
