<svg width="28" height="28" viewBox="0 0 28 28" fill="none" xmlns="http://www.w3.org/2000/svg">
<path d="M8.53481 4.2002C7.74131 4.20015 6.97134 4.46973 6.35117 4.96475C5.73101 5.45976 5.29745 6.15082 5.12161 6.9246L2.89561 16.7246C2.7792 17.2368 2.77959 17.7687 2.89675 18.2808C3.01392 18.7929 3.24484 19.272 3.57241 19.6827C3.89998 20.0934 4.31578 20.425 4.789 20.6531C5.26222 20.8812 5.7807 20.9998 6.30601 21.0002H21.6906C22.2162 21.0002 22.735 20.8819 23.2085 20.654C23.6821 20.4261 24.0983 20.0945 24.4261 19.6838C24.754 19.2731 24.9852 18.7938 25.1025 18.2815C25.2198 17.7692 25.2203 17.2371 25.1038 16.7246L22.8764 6.9246C22.7006 6.15105 22.2673 5.46017 21.6474 4.96518C21.0275 4.4702 20.2579 4.20046 19.4646 4.2002H8.53481ZM6.48661 7.2354C6.59202 6.77098 6.85214 6.35618 7.22431 6.05906C7.59648 5.76193 8.05859 5.60013 8.53481 5.6002H19.4646C19.9408 5.60013 20.4029 5.76193 20.7751 6.05906C21.1473 6.35618 21.4074 6.77098 21.5128 7.2354L23.7388 17.0354C23.8085 17.3426 23.8083 17.6616 23.738 17.9687C23.6677 18.2759 23.5292 18.5632 23.3327 18.8095C23.1363 19.0559 22.8869 19.2548 22.6032 19.3917C22.3194 19.5286 22.0085 19.5998 21.6934 19.6002H6.30741C5.99212 19.6002 5.68086 19.5293 5.39674 19.3926C5.11262 19.2559 4.86292 19.057 4.66617 18.8106C4.46942 18.5643 4.33067 18.2767 4.26022 17.9694C4.18977 17.6621 4.18943 17.3429 4.25921 17.0354L6.48661 7.2354ZM7.70041 22.4002C7.51476 22.4002 7.33671 22.4739 7.20544 22.6052C7.07416 22.7365 7.00041 22.9145 7.00041 23.1002C7.00041 23.2858 7.07416 23.4639 7.20544 23.5952C7.33671 23.7264 7.51476 23.8002 7.70041 23.8002H20.3004C20.4861 23.8002 20.6641 23.7264 20.7954 23.5952C20.9267 23.4639 21.0004 23.2858 21.0004 23.1002C21.0004 22.9145 20.9267 22.7365 20.7954 22.6052C20.6641 22.4739 20.4861 22.4002 20.3004 22.4002H7.70041Z" fill="#1D1D1D"/>
</svg>
