<svg width="20" height="20" viewBox="0 0 20 20" fill="none" xmlns="http://www.w3.org/2000/svg">
<path d="M7.50033 3.71639C8.3087 3.45956 9.15214 3.33023 10.0003 3.33305C13.4853 3.33305 15.857 5.41639 17.2712 7.25305C17.9795 8.17472 18.3337 8.63389 18.3337 9.99972C18.3337 11.3664 17.9795 11.8256 17.2712 12.7464C15.857 14.5831 13.4853 16.6664 10.0003 16.6664C6.51533 16.6664 4.14366 14.5831 2.72949 12.7464C2.02116 11.8264 1.66699 11.3656 1.66699 9.99972C1.66699 8.63305 2.02116 8.17389 2.72949 7.25305C3.16158 6.68874 3.64261 6.16365 4.16699 5.68389" stroke="#1D1D1D" stroke-opacity="0.5" stroke-width="1.5" stroke-linecap="round"/>
<path d="M12.5 10C12.5 10.663 12.2366 11.2989 11.7678 11.7678C11.2989 12.2366 10.663 12.5 10 12.5C9.33696 12.5 8.70107 12.2366 8.23223 11.7678C7.76339 11.2989 7.5 10.663 7.5 10C7.5 9.33696 7.76339 8.70107 8.23223 8.23223C8.70107 7.76339 9.33696 7.5 10 7.5C10.663 7.5 11.2989 7.76339 11.7678 8.23223C12.2366 8.70107 12.5 9.33696 12.5 10Z" stroke="#1D1D1D" stroke-opacity="0.5" stroke-width="1.5"/>
</svg>
