<svg width="20" height="20" viewBox="0 0 20 20" fill="none" xmlns="http://www.w3.org/2000/svg">
<path d="M11.6667 11.6667H8.33333M11.6667 11.6667V14.3581C11.6667 15.4703 11.6667 16.0264 11.5414 16.2847C11.2319 16.9231 10.4536 17.1762 9.82779 16.842C9.57459 16.7067 9.2475 16.257 8.59332 15.3575C8.52533 15.264 8.49134 15.2173 8.46345 15.1681C8.39699 15.0509 8.3549 14.9214 8.33971 14.7876C8.33333 14.7314 8.33333 14.6736 8.33333 14.558V11.6667M11.6667 11.6667L12.9167 9.70238M8.33333 11.6667L6.02084 8.03275C4.65149 5.88092 3.96682 4.805 4.22588 3.93139C4.30722 3.6571 4.44645 3.40346 4.63419 3.18758C5.23214 2.5 6.50743 2.5 9.05802 2.5H12.3663C13.6539 2.5 14.2977 2.5 14.6994 2.68724C15.4907 3.05607 15.9511 3.89484 15.8374 4.76043C15.7797 5.19987 15.4339 5.74328 14.7423 6.83008C14.7297 6.84984 14.7048 6.88888 14.7048 6.88888" stroke="#1D1D1D" stroke-width="1.5" stroke-linecap="round" stroke-linejoin="round"/>
</svg>
