<svg width="28" height="28" viewBox="0 0 28 28" fill="none" xmlns="http://www.w3.org/2000/svg">
<path d="M11.667 20.7083C11.2436 21.8373 12.0782 23.0417 13.284 23.0417H21.0466C22.2214 23.0417 22.8087 23.0417 23.2268 22.8878C24.2125 22.5249 24.8663 21.5847 24.8632 20.5344C24.8619 20.0888 24.6574 19.5382 24.2484 18.437C23.9082 17.5213 23.7382 17.0634 23.494 16.6892C22.9258 15.8184 22.0408 15.203 21.0267 14.9736C20.5909 14.875 20.1024 14.875 19.1256 14.875H17.0424C16.6913 14.875 16.5158 14.875 16.3418 14.8902C16.1673 14.9055 15.994 14.9322 15.8231 14.9702C15.6525 15.0081 15.4851 15.0609 15.1503 15.1667" stroke="#1D1D1D" stroke-width="1.5" stroke-linejoin="round"/>
<path d="M15.2832 9.62467C15.2832 7.85276 16.7196 6.41634 18.4915 6.41634C20.2634 6.41634 21.6999 7.85276 21.6999 9.62467C21.6999 11.3966 20.2634 12.833 18.4915 12.833C16.7196 12.833 15.2832 11.3966 15.2832 9.62467Z" fill="#1D1D1D"/>
<path d="M6.53366 7.29134C6.53366 5.51943 7.97008 4.08301 9.74199 4.08301C11.5139 4.08301 12.9503 5.51943 12.9503 7.29134C12.9503 9.06325 11.5139 10.4997 9.74199 10.4997C7.97008 10.4997 6.53366 9.06325 6.53366 7.29134Z" fill="#1D1D1D"/>
<path d="M16.4443 16.589C16.1728 15.3053 16.037 14.6634 15.774 14.1413C15.1945 12.9913 14.1501 12.1447 12.9052 11.8157C12.34 11.6663 11.6839 11.6663 10.3717 11.6663H9.0255C7.74686 11.6663 7.10753 11.6663 6.54501 11.8142C5.46145 12.0991 4.52312 12.7779 3.91354 13.718C3.59707 14.206 3.39705 14.8132 2.99699 16.0277C2.5191 17.4784 2.28015 18.2038 2.32104 18.7913C2.40042 19.9318 3.12117 20.9281 4.17961 21.3603C4.72485 21.583 5.48857 21.583 7.016 21.583H12.3959C13.6723 21.583 14.3106 21.583 14.7927 21.4138C15.8621 21.0387 16.6288 20.0929 16.7746 18.969C16.8404 18.4623 16.7083 17.8378 16.4443 16.589Z" fill="#1D1D1D"/>
</svg>
