<svg width="28" height="28" viewBox="0 0 28 28" fill="none" xmlns="http://www.w3.org/2000/svg">
<path d="M11.6719 20.6724C11.2455 21.8203 12.0945 23.0413 13.319 23.0413H22.167M15.1503 15.1663C15.4851 15.0606 15.6525 15.0078 15.8231 14.9699C15.994 14.9319 16.1673 14.9052 16.3418 14.8899C16.5158 14.8747 16.6913 14.8747 17.0424 14.8747H17.919C20.0635 14.8747 21.1358 14.8747 22.0126 15.338C22.2995 15.4895 22.5669 15.6754 22.8088 15.8916C23.5484 16.5523 23.9218 17.5574 24.6685 19.5677L24.9317 20.2766M9.71875 9.62467C8.43009 9.62467 7.38542 8.58001 7.38542 7.29134C7.38542 6.00268 8.43009 4.95801 9.71875 4.95801C11.0074 4.95801 12.0521 6.00268 12.0521 7.29134C12.0521 8.58001 11.0074 9.62467 9.71875 9.62467ZM18.4687 11.958C17.1801 11.958 16.1354 10.9133 16.1354 9.62467C16.1354 8.33601 17.1801 7.29134 18.4687 7.29134C19.7574 7.29134 20.8021 8.33601 20.8021 9.62467C20.8021 10.9133 19.7574 11.958 18.4687 11.958ZM6.95404 20.708H12.2966C13.4714 20.708 14.0587 20.708 14.4768 20.5541C15.4625 20.1913 16.1163 19.251 16.1132 18.2007C16.1119 17.7552 15.9074 17.2046 15.4983 16.1033C15.1582 15.1876 14.9882 14.7297 14.744 14.3555C14.1758 13.4847 13.2908 12.8694 12.2767 12.6399C11.8408 12.5413 11.3524 12.5413 10.3756 12.5413H8.87508C7.89823 12.5413 7.4098 12.5413 6.974 12.6399C5.95983 12.8694 5.07486 13.4847 4.50666 14.3555C4.26249 14.7297 4.09243 15.1876 3.7523 16.1033C3.34327 17.2046 3.13875 17.7552 3.13745 18.2007C3.13438 19.251 3.78816 20.1913 4.77383 20.5541C5.19192 20.708 5.7793 20.708 6.95404 20.708Z" stroke="#1D1D1D" stroke-width="1.5" stroke-linecap="round" stroke-linejoin="round"/>
</svg>
