<svg width="28" height="28" viewBox="0 0 28 28" fill="none" xmlns="http://www.w3.org/2000/svg">
<path d="M2.3335 13.9997C2.3335 8.50001 2.3335 5.75017 4.0415 4.04101C5.75183 2.33301 8.5005 2.33301 14.0002 2.33301C19.4998 2.33301 22.2497 2.33301 23.9577 4.04101C25.6668 5.75134 25.6668 8.50001 25.6668 13.9997C25.6668 19.4993 25.6668 22.2492 23.9577 23.9572C22.2508 25.6663 19.4998 25.6663 14.0002 25.6663C8.5005 25.6663 5.75066 25.6663 4.0415 23.9572C2.3335 22.2503 2.3335 19.4993 2.3335 13.9997Z" stroke="#1D1D1D" stroke-width="1.5"/>
<path d="M8.16699 21V10.5M14.0003 21V7M19.8337 21V15.1667" stroke="#1D1D1D" stroke-width="1.5" stroke-linecap="round"/>
</svg>
