<svg width="28" height="28" viewBox="0 0 28 28" fill="none" xmlns="http://www.w3.org/2000/svg">
<path fill-rule="evenodd" clip-rule="evenodd" d="M4.0415 4.04101C2.3335 5.75134 2.3335 8.50001 2.3335 13.9997C2.3335 19.4993 2.3335 22.2492 4.0415 23.9572C5.75183 25.6663 8.5005 25.6663 14.0002 25.6663C19.4998 25.6663 22.2497 25.6663 23.9577 23.9572C25.6668 22.2503 25.6668 19.4993 25.6668 13.9997C25.6668 8.50001 25.6668 5.75017 23.9577 4.04101C22.2508 2.33301 19.4998 2.33301 14.0002 2.33301C8.5005 2.33301 5.75066 2.33301 4.0415 4.04101ZM19.8335 14.2913C20.0656 14.2913 20.2881 14.3835 20.4522 14.5476C20.6163 14.7117 20.7085 14.9343 20.7085 15.1663V20.9997C20.7085 21.2317 20.6163 21.4543 20.4522 21.6184C20.2881 21.7825 20.0656 21.8747 19.8335 21.8747C19.6014 21.8747 19.3789 21.7825 19.2148 21.6184C19.0507 21.4543 18.9585 21.2317 18.9585 20.9997V15.1663C18.9585 14.9343 19.0507 14.7117 19.2148 14.5476C19.3789 14.3835 19.6014 14.2913 19.8335 14.2913ZM14.8752 6.99967C14.8752 6.76761 14.783 6.54505 14.6189 6.38096C14.4548 6.21686 14.2322 6.12467 14.0002 6.12467C13.7681 6.12467 13.5455 6.21686 13.3814 6.38096C13.2174 6.54505 13.1252 6.76761 13.1252 6.99967V20.9997C13.1252 21.2317 13.2174 21.4543 13.3814 21.6184C13.5455 21.7825 13.7681 21.8747 14.0002 21.8747C14.2322 21.8747 14.4548 21.7825 14.6189 21.6184C14.783 21.4543 14.8752 21.2317 14.8752 20.9997V6.99967ZM8.16683 9.62467C8.39889 9.62467 8.62145 9.71686 8.78555 9.88096C8.94964 10.0451 9.04183 10.2676 9.04183 10.4997V20.9997C9.04183 21.2317 8.94964 21.4543 8.78555 21.6184C8.62145 21.7825 8.39889 21.8747 8.16683 21.8747C7.93477 21.8747 7.71221 21.7825 7.54811 21.6184C7.38402 21.4543 7.29183 21.2317 7.29183 20.9997V10.4997C7.29183 10.2676 7.38402 10.0451 7.54811 9.88096C7.71221 9.71686 7.93477 9.62467 8.16683 9.62467Z" fill="#1D1D1D"/>
</svg>
