<svg width="28" height="28" viewBox="0 0 28 28" fill="none" xmlns="http://www.w3.org/2000/svg">
<path d="M24.5 15.167V15.0503C24.5 13.7586 24.5 13.1128 24.346 12.5068C24.2277 12.0411 24.0429 11.595 23.7973 11.1821C23.4777 10.6447 23.021 10.188 22.1076 9.27462L20.364 7.53095C17.7125 4.87949 16.3868 3.55376 14.7822 3.29962C14.264 3.21754 13.736 3.21754 13.2178 3.29962C11.6132 3.55376 10.2875 4.87949 7.63604 7.53095L6.13604 9.03095C4.98167 10.1853 4.40449 10.7625 4.04497 11.4681C3.92605 11.7015 3.82566 11.9439 3.74472 12.193C3.5 12.9461 3.5 13.7624 3.5 15.3949V21.0003C3.5 21.4647 3.5 21.697 3.52567 21.8919C3.7029 23.2381 4.76222 24.2974 6.10842 24.4747C6.30337 24.5003 6.53558 24.5003 7 24.5003C7.46442 24.5003 7.69663 24.5003 7.89158 24.4747C9.23778 24.2974 10.2971 23.2381 10.4743 21.8919C10.5 21.697 10.5 21.4647 10.5 21.0003V19.8337C10.5 19.3692 10.5 19.137 10.5257 18.9421C10.7029 17.5959 11.7622 16.5366 13.1084 16.3593C13.3034 16.3337 13.5356 16.3337 14 16.3337C14.4644 16.3337 14.6966 16.3337 14.8916 16.3593C16.2378 16.5366 17.2971 17.5959 17.4743 18.9421C17.5 19.137 17.5 19.3692 17.5 19.8337V21.0003C17.5 21.4647 17.5 21.697 17.5257 21.8919C17.7029 23.2381 18.7622 24.2974 20.1084 24.4747C20.3034 24.5003 20.5356 24.5003 21 24.5003C21.4644 24.5003 21.6966 24.5003 21.8916 24.4747C23.2378 24.2974 24.2971 23.2381 24.4743 21.8919C24.5 21.697 24.5 21.4647 24.5 21.0003V19.8337" stroke="#1D1D1D" stroke-width="1.5" stroke-linecap="round" stroke-linejoin="round"/>
</svg>
