<svg width="28" height="28" viewBox="0 0 28 28" fill="none" xmlns="http://www.w3.org/2000/svg">
<path d="M6.66741 7.36079C9.72135 4.2951 11.2483 2.76226 13.0983 2.46852C13.6957 2.37367 14.3043 2.37367 14.9017 2.46852C16.7517 2.76226 18.2786 4.2951 21.3326 7.36079L22.7512 8.78482C23.9003 9.93835 24.4748 10.5151 24.8326 11.2194C24.951 11.4523 25.0509 11.6942 25.1315 11.9428C25.375 12.6942 25.375 13.5083 25.375 15.1366V21.5833C25.375 21.622 25.375 21.6414 25.3749 21.6577C25.357 23.7032 23.7032 25.357 21.6577 25.3749C21.6414 25.375 21.622 25.375 21.5833 25.375C21.5446 25.375 21.5253 25.375 21.5089 25.3749C19.4635 25.357 17.8097 23.7032 17.7918 21.6577C17.7917 21.6414 17.7917 21.622 17.7917 21.5833V20.2854C17.7917 20.2467 17.7917 20.2274 17.7915 20.211C17.7737 18.1655 16.1199 16.5117 14.0744 16.4939C14.058 16.4938 14.0387 16.4938 14 16.4938C13.9613 16.4938 13.942 16.4938 13.9256 16.4939C11.8801 16.5117 10.2263 18.1655 10.2085 20.211C10.2083 20.2274 10.2083 20.2467 10.2083 20.2854V21.5833C10.2083 21.622 10.2083 21.6414 10.2082 21.6577C10.1903 23.7032 8.53653 25.357 6.49106 25.3749C6.4747 25.375 6.45535 25.375 6.41667 25.375C6.37798 25.375 6.35864 25.375 6.34228 25.3749C4.2968 25.357 2.64299 23.7032 2.62514 21.6577C2.625 21.6414 2.625 21.622 2.625 21.5833V15.1366C2.625 13.5083 2.625 12.6942 2.86853 11.9428C2.94909 11.6942 3.049 11.4523 3.16736 11.2194C3.52518 10.5151 4.09973 9.93835 5.24884 8.78482L6.66741 7.36079Z" fill="#1D1D1D"/>
</svg>
