<svg width="28" height="28" viewBox="0 0 28 28" fill="none" xmlns="http://www.w3.org/2000/svg">
<path d="M14 3.5V5.83333M14 3.5C11.1005 3.5 8.4755 4.67525 6.57538 6.57538M14 3.5C16.1585 3.5 18.1649 4.15132 19.8333 5.26814M3.5 14C3.5 11.1005 4.67525 8.4755 6.57538 6.57538M3.5 14H5.83333M3.5 14C3.5 16.8993 4.67512 19.5242 6.57506 21.4243M6.57538 6.57538L8.22417 8.22417M24.5 14L22.1667 14M24.5 14C24.5 16.8995 23.3247 19.5245 21.4246 21.4246M24.5 14C24.5 12.0875 23.9887 10.2944 23.0953 8.75M14 24.5V22.1667M14 24.5C16.8995 24.5 19.5245 23.3247 21.4246 21.4246M14 24.5C11.1003 24.5 8.47521 23.3246 6.57506 21.4243M21.4246 21.4246L19.7736 19.7736M6.57506 21.4243L8.22498 19.7744M13.9996 12.25V9.04167M13.9996 12.25C13.0333 12.25 12.25 13.0335 12.25 13.9998C12.25 14.9663 13.0335 15.75 14 15.75C14.9665 15.75 15.75 14.9665 15.75 14C15.75 13.0335 14.9661 12.25 13.9996 12.25Z" stroke="#1D1D1D" stroke-width="1.5" stroke-linecap="round" stroke-linejoin="round"/>
</svg>
