<svg width="28" height="28" viewBox="0 0 28 28" fill="none" xmlns="http://www.w3.org/2000/svg">
<path d="M14.751 2.65137C17.3264 2.81922 19.6658 3.84474 21.4912 5.44434L20.0703 6.86719C19.7775 7.16009 19.7775 7.6349 20.0703 7.92773C20.3632 8.2202 20.8381 8.22042 21.1309 7.92773L22.5527 6.50488C24.1538 8.33036 25.1793 10.6708 25.3477 13.2471H23.334C22.9198 13.2471 22.584 13.5829 22.584 13.9971C22.5843 14.4111 22.9199 14.7471 23.334 14.7471H25.3477C25.1805 17.3239 24.1561 19.6649 22.5557 21.4912L21.1299 20.0645C20.837 19.7716 20.3613 19.7717 20.0684 20.0645C19.7755 20.3573 19.7755 20.8331 20.0684 21.126L21.4951 22.5518C19.6689 24.1536 17.3276 25.1799 14.75 25.3477V23.3301C14.7499 22.916 14.414 22.5802 14 22.5801C13.5859 22.5802 13.25 22.916 13.25 23.3301V25.3477C10.6726 25.1798 8.331 24.1543 6.50488 22.5527L7.93164 21.127C8.22421 20.8342 8.22407 20.3593 7.93164 20.0664C7.63884 19.7736 7.16401 19.7738 6.87109 20.0664L5.44434 21.4912C3.84398 19.6649 2.81947 17.3239 2.65234 14.7471H4.66699C5.08085 14.7468 5.41672 14.4109 5.41699 13.9971C5.41699 13.583 5.08101 13.2473 4.66699 13.2471H2.65234C2.82073 10.6705 3.84602 8.32945 5.44727 6.50391L6.86914 7.92578C7.16206 8.21838 7.63689 8.21857 7.92969 7.92578C8.22236 7.63298 8.22224 7.15811 7.92969 6.86523L6.50781 5.44336C8.33367 3.84331 10.6748 2.81889 13.251 2.65137V4.66309C13.2511 5.07722 13.5868 5.41309 14.001 5.41309C14.4148 5.41269 14.7509 5.07697 14.751 4.66309V2.65137ZM14 8.28809C13.586 8.2882 13.2502 8.62409 13.25 9.03809V11.4844C12.1659 11.807 11.375 12.8111 11.375 14C11.3752 15.4495 12.5504 16.6249 14 16.625C15.4497 16.625 16.625 15.4497 16.625 14C16.625 12.8112 15.834 11.8084 14.75 11.4854V9.03809C14.7498 8.62416 14.4139 8.28831 14 8.28809Z" fill="#1D1D1D"/>
</svg>
