<svg width="18" height="18" viewBox="0 0 18 18" fill="none" xmlns="http://www.w3.org/2000/svg">
<path d="M4.5 13.5933V14.163C4.5 14.629 4.12224 15.0068 3.65625 15.0068C3.19026 15.0068 2.8125 14.629 2.8125 14.163V7.59601C2.8125 7.13002 3.19026 6.75226 3.65625 6.75226C4.12224 6.75226 4.5 7.13002 4.5 7.59601V8.26629M4.5 13.5933L4.74938 13.8283C5.30424 14.3512 5.58167 14.6126 5.92529 14.7988C6.03367 14.8575 6.16294 14.9171 6.27801 14.9614C6.6428 15.1016 6.99696 15.14 7.70527 15.2168C8.40289 15.2924 9.17857 15.362 9.75 15.3732C10.5838 15.3895 11.6546 15.2916 12.4962 15.1929C13.3477 15.093 14.0515 14.5021 14.3346 13.6928M4.5 13.5933V8.26629M4.5 8.26629C5.87844 7.7895 6.68318 7.13822 7.77878 6.0177C8.51595 5.26377 9.02168 3.83599 9.32126 3.14164C9.47418 2.78719 9.83452 2.625 10.2133 2.625C10.7543 2.625 11.2674 2.93171 11.4349 3.45779C11.7196 4.35123 11.7203 5.20264 11.4371 6.19261C11.3378 6.68871 11.6963 7.15937 12.201 7.19543L13.6892 7.30179C15.1054 7.40301 16.0383 8.82241 15.5695 10.1626L15.3203 10.875" stroke="#1D1D1D" stroke-width="1.5" stroke-linecap="round" stroke-linejoin="round"/>
</svg>
