<svg width="18" height="18" viewBox="0 0 18 18" fill="none" xmlns="http://www.w3.org/2000/svg">
<path d="M1.6875 7.96875V14.1562C1.6875 14.7258 2.14921 15.1875 2.71875 15.1875C3.28829 15.1875 3.75 14.7258 3.75 14.1563V7.96875C3.75 7.39921 3.28829 6.9375 2.71875 6.9375C2.14921 6.9375 1.6875 7.39921 1.6875 7.96875Z" fill="#1D1D1D"/>
<path d="M11.4371 6.19261C11.7203 5.20264 11.7196 4.35123 11.4349 3.45779C11.2674 2.93171 10.7543 2.625 10.2133 2.625C9.83452 2.625 9.47418 2.78719 9.32126 3.14164C9.02168 3.83599 8.51595 5.26377 7.77878 6.0177C6.68318 7.13822 5.87844 7.7895 4.5 8.26629V13.5933L4.74938 13.8283C5.30424 14.3512 5.58167 14.6126 5.92529 14.7988C6.03367 14.8575 6.16294 14.9171 6.27801 14.9614C6.6428 15.1016 6.99696 15.14 7.70527 15.2168C8.40289 15.2924 9.17857 15.362 9.75 15.3732C10.2487 15.383 10.8321 15.3518 11.4006 15.3041C11.9614 15.2571 12.2418 15.2336 12.5646 15.1306C13.1951 14.9296 13.8404 14.4298 14.1927 13.8696C14.3731 13.5828 14.4814 13.2732 14.698 12.6539L14.698 12.6539L15.5695 10.1626C16.0383 8.82241 15.1054 7.40301 13.6892 7.30179L12.201 7.19543C11.6963 7.15937 11.3378 6.68871 11.4371 6.19261Z" fill="#1D1D1D"/>
</svg>
