<svg width="20" height="20" viewBox="0 0 20 20" fill="none" xmlns="http://www.w3.org/2000/svg">
<path d="M2.5 10C2.5 8.83836 2.5 8.25754 2.59607 7.77455C2.99061 5.7911 4.5411 4.24061 6.52455 3.84607C7.00754 3.75 7.58836 3.75 8.75 3.75H11.25C12.4116 3.75 12.9925 3.75 13.4755 3.84607C15.4589 4.24061 17.0094 5.7911 17.4039 7.77455C17.5 8.25754 17.5 8.83836 17.5 10C17.5 11.1616 17.5 11.7425 17.4039 12.2255C17.0094 14.2089 15.4589 15.7594 13.4755 16.1539C12.9925 16.25 12.4116 16.25 11.25 16.25H8.75C7.58836 16.25 7.00754 16.25 6.52455 16.1539C4.5411 15.7594 2.99061 14.2089 2.59607 12.2255C2.5 11.7425 2.5 11.1616 2.5 10Z" stroke="#1D1D1D" stroke-width="1.5" stroke-linejoin="round"/>
<path d="M14.7114 7.90335C14.3856 8.15912 14.3288 8.63058 14.5846 8.9564C14.8403 9.28221 15.3118 9.339 15.6376 9.08323L15.1745 8.49329L14.7114 7.90335ZM12.9957 11.1214C13.3226 10.8671 13.3815 10.3959 13.1272 10.069C12.8729 9.74202 12.4017 9.68313 12.0747 9.93744L12.5352 10.5294L12.9957 11.1214ZM7.46736 10.5296L7.00692 11.1216L7.46736 10.5296ZM2.50098 6.66699L2.04053 7.25902L7.00692 11.1216L7.46736 10.5296L7.92781 9.93753L2.96142 6.07497L2.50098 6.66699ZM15.1745 8.49329L15.6376 9.08323L17.9641 7.25693L17.501 6.66699L17.0379 6.07705L14.7114 7.90335L15.1745 8.49329ZM7.46736 10.5296L7.00692 11.1216C8.7682 12.4914 11.2345 12.4913 12.9957 11.1214L12.5352 10.5294L12.0747 9.93744C10.8552 10.886 9.14741 10.8861 7.92781 9.93753L7.46736 10.5296Z" fill="#1D1D1D"/>
</svg>
