<svg width="28" height="28" viewBox="0 0 28 28" fill="none" xmlns="http://www.w3.org/2000/svg">
<path d="M14 2.625C20.2383 2.625 25.4873 7.6917 24.1914 14.1719C23.5507 17.3754 21.0351 20.3076 18.8262 22.3691C17.703 23.4175 16.6189 24.2769 15.8164 24.874C15.6091 25.0283 15.5054 25.1055 15.3575 25.1895C14.5817 25.6296 13.4194 25.6295 12.6436 25.1895C12.4955 25.1054 12.3912 25.0285 12.1836 24.874C11.3812 24.2768 10.2972 23.4176 9.17387 22.3691C6.96503 20.3075 4.44953 17.3754 3.80864 14.1719C2.51239 7.69166 7.76193 2.62508 14 2.625ZM14 8.9248C11.7449 8.9248 9.91704 10.7536 9.91704 13.0088C9.91727 15.2638 11.745 17.0918 14 17.0918C16.2551 17.0918 18.0828 15.2638 18.0831 13.0088C18.0831 10.7536 16.2552 8.9248 14 8.9248Z" fill="#1D1D1D"/>
</svg>
