<svg width="28" height="28" viewBox="0 0 28 28" fill="none" xmlns="http://www.w3.org/2000/svg">
<path d="M3.5 14C3.5 10.4888 3.5 8.73327 4.34265 7.47215C4.70744 6.9262 5.1762 6.45744 5.72215 6.09265C6.98327 5.25 8.73884 5.25 12.25 5.25H15.75C19.2612 5.25 21.0167 5.25 22.2779 6.09265C22.8238 6.45744 23.2926 6.9262 23.6573 7.47215C24.5 8.73327 24.5 10.4888 24.5 14C24.5 17.5112 24.5 19.2667 23.6573 20.5279C23.2926 21.0738 22.8238 21.5426 22.2779 21.9073C21.0167 22.75 19.2612 22.75 15.75 22.75H12.25C8.73884 22.75 6.98327 22.75 5.72215 21.9073C5.1762 21.5426 4.70744 21.0738 4.34265 20.5279C3.5 19.2667 3.5 17.5112 3.5 14Z" stroke="#1D1D1D" stroke-width="1.5" stroke-linejoin="round"/>
<path d="M20.7806 11.2999C20.4548 11.5557 20.398 12.0271 20.6537 12.3529C20.9095 12.6787 21.381 12.7355 21.7068 12.4798L21.2437 11.8898L20.7806 11.2999ZM18.0091 15.3324C18.3361 15.0781 18.395 14.6069 18.1406 14.28C17.8863 13.953 17.4151 13.8941 17.0882 14.1484L17.5486 14.7404L18.0091 15.3324ZM10.4537 14.7406L9.99323 15.3326L10.4537 14.7406ZM11.3531 15.4066L10.9559 16.0428L11.3531 15.4066ZM16.6493 15.4065L16.2521 14.7703L16.6493 15.4065ZM3.50073 9.33301L3.04029 9.92503L9.99323 15.3326L10.4537 14.7406L10.9141 14.1486L3.96117 8.74098L3.50073 9.33301ZM21.2437 11.8898L21.7068 12.4798L24.9638 9.92295L24.5007 9.33301L24.0376 8.74307L20.7806 11.2999L21.2437 11.8898ZM10.4537 14.7406L9.99323 15.3326C10.4336 15.6751 10.6967 15.881 10.9559 16.0428L11.3531 15.4066L11.7503 14.7704C11.5726 14.6595 11.3818 14.5123 10.9141 14.1486L10.4537 14.7406ZM17.5486 14.7404L17.0882 14.1484C16.6205 14.5122 16.4297 14.6594 16.2521 14.7703L16.6493 15.4065L17.0465 16.0426C17.3056 15.8808 17.5688 15.6749 18.0091 15.3324L17.5486 14.7404ZM11.3531 15.4066L10.9559 16.0428C12.8194 17.2063 15.183 17.2062 17.0465 16.0426L16.6493 15.4065L16.2521 14.7703C14.8747 15.6303 13.1277 15.6304 11.7503 14.7704L11.3531 15.4066Z" fill="#1D1D1D"/>
</svg>
