<svg width="28" height="28" viewBox="0 0 28 28" fill="none" xmlns="http://www.w3.org/2000/svg">
<path d="M22.7317 19.833C23.2843 19.0074 23.723 18.0991 24.0252 17.1305C24.242 16.4358 24.3503 16.0885 24.1804 15.7339C24.1318 15.6326 24.0419 15.5104 23.9597 15.4339C23.6718 15.1661 23.2565 15.1661 22.426 15.1661H14.6333C13.8834 15.1661 13.5084 15.1661 13.2455 14.9751C13.1607 14.9134 13.086 14.8387 13.0243 14.7538C12.8333 14.491 12.8333 14.116 12.8333 13.3661V5.57342C12.8333 4.74286 12.8333 4.32757 12.5655 4.03967C12.489 3.95743 12.3668 3.86752 12.2655 3.81898C11.9108 3.64906 11.5635 3.75745 10.8687 3.97424C6.59906 5.30645 3.5 9.29101 3.5 13.9994C3.5 19.7984 8.20101 24.4994 14 24.4994C15.9086 24.4994 17.6983 23.9901 19.2406 23.1001M15.75 12.2494V5.77171C15.75 4.90011 15.75 4.46431 16.0366 4.17254C16.1179 4.08972 16.2482 4.0005 16.3549 3.95463C16.7306 3.79305 17.0863 3.93111 17.7978 4.20725C20.5419 5.27227 22.7271 7.45751 23.7921 10.2016C24.0683 10.9131 24.2063 11.2688 24.0448 11.6445C23.9989 11.7512 23.9097 11.8815 23.8268 11.9628C23.5351 12.2494 23.0993 12.2494 22.2277 12.2494H15.75Z" stroke="#1D1D1D" stroke-width="1.5" stroke-linecap="round" stroke-linejoin="round"/>
</svg>
