<svg width="28" height="28" viewBox="0 0 28 28" fill="none" xmlns="http://www.w3.org/2000/svg">
<path d="M2.625 13.999C2.625 20.2812 7.71776 25.374 14 25.374C19.4378 25.374 23.9844 21.5583 25.1084 16.4583C25.259 15.7753 25.3343 15.4337 25.1557 15.1055C25.104 15.0104 25.0148 14.8993 24.933 14.8283C24.6509 14.5833 24.2562 14.5833 23.4669 14.5833H15.2167C14.4667 14.5833 14.0917 14.5833 13.8289 14.3924C13.744 14.3307 13.6693 14.256 13.6076 14.1711C13.4167 13.9083 13.4167 13.5333 13.4167 12.7833V4.53189C13.4167 3.7426 13.4167 3.34796 13.1717 3.06588C13.1007 2.98409 12.9897 2.89487 12.8945 2.8431C12.5664 2.66458 12.2248 2.73982 11.5418 2.89028C6.44125 4.01388 2.625 8.56076 2.625 13.999Z" fill="#1D1D1D"/>
<path d="M15.167 11.0335V4.70383C15.167 3.85774 15.167 3.4347 15.4353 3.14668C15.5128 3.06352 15.6333 2.97506 15.7358 2.92605C16.091 2.75634 16.4497 2.86898 17.1672 3.09426C20.8464 4.24956 23.751 7.15416 24.9063 10.8333C25.1316 11.5508 25.2442 11.9095 25.0745 12.2647C25.0255 12.3672 24.937 12.4877 24.8539 12.5652C24.5659 12.8335 24.1428 12.8335 23.2967 12.8335H16.967C16.217 12.8335 15.8421 12.8335 15.5792 12.6425C15.4943 12.5809 15.4197 12.5062 15.358 12.4213C15.167 12.1584 15.167 11.7835 15.167 11.0335Z" fill="#1D1D1D"/>
</svg>
