<svg width="24" height="24" viewBox="0 0 24 24" fill="none" xmlns="http://www.w3.org/2000/svg">
<path d="M10.568 2.97461C10.1773 3.29421 9.91754 3.74614 9.83803 4.24461C9.8053 4.39838 9.73678 4.54228 9.63803 4.66461C9.54348 4.79171 9.42009 4.89453 9.27803 4.96461L8.48803 5.34461C7.8547 5.65583 7.29286 6.09509 6.83803 6.63461C5.43803 8.30461 5.43803 9.05461 5.43803 11.9046C5.43803 13.1946 4.06803 14.3646 3.70803 15.5246C3.48803 16.2146 3.36803 17.7746 5.18803 17.7746H18.768C19.034 17.7862 19.2987 17.7312 19.538 17.6146C19.7765 17.4959 19.9824 17.3208 20.138 17.1046C20.286 16.8866 20.378 16.6356 20.408 16.3746C20.4306 16.1078 20.3859 15.8396 20.278 15.5946C19.918 14.5046 18.488 13.2046 18.488 11.9146V9.78461" stroke="#FFA929" stroke-width="1.5" stroke-linecap="round" stroke-linejoin="round"/>
<path d="M15.228 17.7744C15.231 18.2014 15.153 18.6254 14.998 19.0244C14.8303 19.4194 14.5894 19.779 14.288 20.0844C13.9831 20.3902 13.6195 20.6311 13.2191 20.7927C12.8187 20.9542 12.3897 21.033 11.958 21.0244C11.5254 21.0271 11.0968 20.9421 10.698 20.7744C9.89843 20.4398 9.26264 19.804 8.92798 19.0044C8.77112 18.6135 8.69296 18.1956 8.69798 17.7744" stroke="#FFA929" stroke-width="1.5" stroke-linecap="round" stroke-linejoin="round"/>
<path d="M15.228 7.97461C16.6087 7.97461 17.728 6.85532 17.728 5.47461C17.728 4.0939 16.6087 2.97461 15.228 2.97461C13.8473 2.97461 12.728 4.0939 12.728 5.47461C12.728 6.85532 13.8473 7.97461 15.228 7.97461Z" stroke="#FFA929" stroke-width="1.5"/>
</svg>
