<svg width="20" height="22" viewBox="0 0 20 22" fill="none" xmlns="http://www.w3.org/2000/svg">
<path d="M3.35427 3.73328L2.79941 3.22866V3.22867L3.35427 3.73328ZM7.47906 3.73328L8.03392 3.22866L7.47906 3.73328ZM7.47906 8.26877L6.9242 7.76416V7.76416L7.47906 8.26877ZM12.4877 13.7762L11.9329 13.2716V13.2716L12.4877 13.7762ZM16.6125 18.3117L16.0577 17.807V17.807L16.6125 18.3117ZM6.30055 15.072L5.74569 15.5766L6.30055 15.072ZM2.51544 6.33162L3.26543 6.32775C3.26532 6.30568 3.26423 6.28363 3.26217 6.26165L2.51544 6.33162ZM14.2495 19.234L14.3339 18.4888C14.3074 18.4858 14.2808 18.4842 14.2542 18.484L14.2495 19.234ZM5.87966 9.16768L5.74977 8.42901C5.51755 8.46985 5.31804 8.61751 5.21115 8.82768C5.10426 9.03785 5.10243 9.28605 5.20621 9.49778L5.87966 9.16768ZM11.6702 15.5348L11.2879 16.18C11.5031 16.3076 11.7678 16.3194 11.9935 16.2116C12.2193 16.1037 12.3764 15.8904 12.4124 15.6428L11.6702 15.5348ZM6.64183 11.8762C6.88525 12.2113 7.35427 12.2857 7.68941 12.0423C8.02455 11.7988 8.09891 11.3298 7.85549 10.9947L7.24866 11.4354L6.64183 11.8762ZM10.1007 13.4647C9.78947 13.1913 9.31559 13.222 9.04222 13.5332C8.76885 13.8444 8.79951 14.3183 9.1107 14.5916L9.60568 14.0282L10.1007 13.4647ZM3.35427 3.73328L3.90913 4.23789C4.7506 3.31263 6.08273 3.31263 6.9242 4.23789L7.47906 3.73328L8.03392 3.22866C6.59733 1.64904 4.236 1.64904 2.79941 3.22866L3.35427 3.73328ZM7.47906 3.73328L6.9242 4.23789C7.80304 5.20423 7.80304 6.79782 6.9242 7.76416L7.47906 8.26877L8.03392 8.77339C9.43314 7.23485 9.43314 4.76721 8.03392 3.22866L7.47906 3.73328ZM12.4877 13.7762L13.0426 14.2808C13.8841 13.3555 15.2162 13.3555 16.0577 14.2808L16.6125 13.7762L17.1674 13.2716C15.7308 11.6919 13.3695 11.6919 11.9329 13.2716L12.4877 13.7762ZM16.6125 13.7762L16.0577 14.2808C16.9365 15.2471 16.9365 16.8407 16.0577 17.807L16.6125 18.3117L17.1674 18.8163C18.5666 17.2777 18.5666 14.8101 17.1674 13.2716L16.6125 13.7762ZM6.30055 15.072L6.85541 14.5674C4.51401 11.9929 3.27865 8.88863 3.26543 6.32775L2.51544 6.33162L1.76545 6.33549C1.7809 9.33005 3.20096 12.7785 5.74569 15.5766L6.30055 15.072ZM2.51544 6.33162L3.26217 6.26165C3.19312 5.52472 3.41778 4.77816 3.90913 4.23789L3.35427 3.73328L2.79941 3.22867C1.99859 4.10923 1.66402 5.28426 1.76871 6.40159L2.51544 6.33162ZM16.6125 18.3117L16.0577 17.807C15.5713 18.3418 14.9342 18.5568 14.3339 18.4888L14.2495 19.234L14.165 19.9792C15.251 20.1023 16.3616 19.7023 17.1674 18.8163L16.6125 18.3117ZM14.2495 19.234L14.2542 18.484C11.9944 18.4699 9.20085 17.1464 6.85541 14.5674L6.30055 15.072L5.74569 15.5766C8.28638 18.3703 11.4521 19.9666 14.2448 19.984L14.2495 19.234ZM7.47906 8.26877L6.9242 7.76416C6.58267 8.13971 6.16876 8.35533 5.74977 8.42901L5.87966 9.16768L6.00955 9.90634C6.76166 9.77409 7.47273 9.39045 8.03392 8.77339L7.47906 8.26877ZM11.6702 15.5348L12.4124 15.6428C12.4863 15.135 12.6996 14.6579 13.0426 14.2808L12.4877 13.7762L11.9329 13.2716C11.3731 13.887 11.0415 14.647 10.928 15.4269L11.6702 15.5348ZM7.24866 11.4354L7.85549 10.9947C7.3468 10.2943 6.91171 9.56917 6.55311 8.83758L5.87966 9.16768L5.20621 9.49778C5.60324 10.3078 6.08307 11.1069 6.64183 11.8762L7.24866 11.4354ZM11.6702 15.5348L12.0526 14.8896C11.3925 14.4984 10.736 14.0228 10.1007 13.4647L9.60568 14.0282L9.1107 14.5916C9.81314 15.2087 10.5447 15.7396 11.2879 16.18L11.6702 15.5348Z" fill="#1D1D1D"/>
</svg>
