<svg width="20" height="20" viewBox="0 0 20 20" fill="none" xmlns="http://www.w3.org/2000/svg">
<path d="M17.083 8.75V16.25C17.083 16.6383 17.083 16.8325 17.0197 16.9858C16.9349 17.1896 16.7728 17.3515 16.5688 17.4358C16.4155 17.5 16.2213 17.5 15.833 17.5C15.4447 17.5 15.2505 17.5 15.0972 17.4367C14.8934 17.3519 14.7316 17.1898 14.6472 16.9858C14.583 16.8325 14.583 16.6383 14.583 16.25V8.75C14.583 8.36167 14.583 8.1675 14.6463 8.01417C14.7311 7.81038 14.8932 7.64855 15.0972 7.56417C15.2505 7.5 15.4447 7.5 15.833 7.5C16.2213 7.5 16.4155 7.5 16.5688 7.56333C16.7726 7.64809 16.9345 7.81023 17.0188 8.01417C17.083 8.1675 17.083 8.36167 17.083 8.75Z" stroke="#4CAF50" stroke-width="1.1" stroke-linejoin="round"/>
<path d="M13.75 2.5H16.25V5" stroke="#4CAF50" stroke-width="1.1" stroke-linecap="round" stroke-linejoin="round"/>
<path d="M15.8333 2.91699C15.8333 2.91699 12.5 7.08366 3.75 10.0003" stroke="#4CAF50" stroke-width="1.1" stroke-linecap="round" stroke-linejoin="round"/>
<path d="M11.2498 11.667V16.2503C11.2498 16.6387 11.2498 16.8328 11.1865 16.9862C11.1017 17.1899 10.9396 17.3518 10.7357 17.4362C10.5823 17.5003 10.3882 17.5003 9.99984 17.5003C9.6115 17.5003 9.41734 17.5003 9.264 17.437C9.06022 17.3522 8.89838 17.1901 8.814 16.9862C8.74984 16.8328 8.74984 16.6387 8.74984 16.2503V11.667C8.74984 11.2787 8.74984 11.0845 8.81317 10.9312C8.89793 10.7274 9.06006 10.5655 9.264 10.4812C9.41734 10.417 9.6115 10.417 9.99984 10.417C10.3882 10.417 10.5823 10.417 10.7357 10.4803C10.9395 10.5651 11.1013 10.7272 11.1857 10.9312C11.2498 11.0845 11.2498 11.2787 11.2498 11.667ZM5.4165 13.7503V16.2503C5.4165 16.6387 5.4165 16.8328 5.35317 16.9862C5.26841 17.1899 5.10628 17.3518 4.90234 17.4362C4.749 17.5003 4.55484 17.5003 4.1665 17.5003C3.77817 17.5003 3.584 17.5003 3.43067 17.437C3.22689 17.3522 3.06505 17.1901 2.98067 16.9862C2.9165 16.8328 2.9165 16.6387 2.9165 16.2503V13.7503C2.9165 13.362 2.9165 13.1678 2.97984 13.0145C3.06459 12.8107 3.22673 12.6489 3.43067 12.5645C3.584 12.5003 3.77817 12.5003 4.1665 12.5003C4.55484 12.5003 4.749 12.5003 4.90234 12.5637C5.10612 12.6484 5.26796 12.8106 5.35234 13.0145C5.4165 13.1678 5.4165 13.362 5.4165 13.7503Z" stroke="#4CAF50" stroke-width="1.1" stroke-linejoin="round"/>
</svg>
