<svg width="22" height="22" viewBox="0 0 22 22" fill="none" xmlns="http://www.w3.org/2000/svg">
<path d="M10.9998 2.2002C10.4163 2.2002 9.85675 2.43198 9.44417 2.84456C9.03159 3.25714 8.7998 3.81672 8.7998 4.4002V8.8002C8.79968 9.28802 8.9617 9.76205 9.26038 10.1478C9.55906 10.5335 9.97747 10.8089 10.4498 10.9309V13.5225L6.9892 10.0608C6.93807 10.0097 6.87736 9.96909 6.81055 9.94142C6.74373 9.91374 6.67212 9.8995 6.5998 9.8995C6.52749 9.8995 6.45588 9.91374 6.38906 9.94142C6.32225 9.96909 6.26154 10.0097 6.2104 10.0608C6.15927 10.1119 6.1187 10.1726 6.09103 10.2395C6.06335 10.3063 6.04911 10.3779 6.04911 10.4502C6.04911 10.5225 6.06335 10.5941 6.09103 10.6609C6.1187 10.7278 6.15927 10.7885 6.2104 10.8396L10.4498 15.0779V15.9502C10.4498 16.0961 10.5078 16.236 10.6109 16.3391C10.714 16.4423 10.8539 16.5002 10.9998 16.5002C11.1457 16.5002 11.2856 16.4423 11.3887 16.3391C11.4919 16.236 11.5498 16.0961 11.5498 15.9502V15.0779L15.7892 10.8396C15.8925 10.7363 15.9505 10.5962 15.9505 10.4502C15.9505 10.3041 15.8925 10.1641 15.7892 10.0608C15.6859 9.95752 15.5459 9.8995 15.3998 9.8995C15.2538 9.8995 15.1137 9.95752 15.0104 10.0608L11.5498 13.5225V10.9309C12.0221 10.8089 12.4405 10.5335 12.7392 10.1478C13.0379 9.76205 13.1999 9.28802 13.1998 8.8002V4.4002C13.1998 3.81672 12.968 3.25714 12.5554 2.84456C12.1429 2.43198 11.5833 2.2002 10.9998 2.2002ZM9.89981 4.4002C9.89981 4.10846 10.0157 3.82867 10.222 3.62238C10.4283 3.41609 10.7081 3.3002 10.9998 3.3002C11.2915 3.3002 11.5713 3.41609 11.7776 3.62238C11.9839 3.82867 12.0998 4.10846 12.0998 4.4002V8.8002C12.0998 9.09193 11.9839 9.37172 11.7776 9.57801C11.5713 9.7843 11.2915 9.9002 10.9998 9.9002C10.7081 9.9002 10.4283 9.7843 10.222 9.57801C10.0157 9.37172 9.89981 9.09193 9.89981 8.8002V4.4002ZM5.7462 14.0428C6.2346 13.8547 6.7846 13.6941 7.38081 13.5643L8.3224 14.5059C7.493 14.6401 6.7538 14.8337 6.1411 15.0691C5.5317 15.3034 5.0752 15.5696 4.7815 15.8369C4.4878 16.1042 4.3998 16.3286 4.3998 16.5002C4.3998 16.6718 4.4878 16.8962 4.7815 17.1635C5.0752 17.4308 5.5317 17.697 6.1411 17.9313C7.35881 18.3988 9.0748 18.7002 10.9998 18.7002C12.9248 18.7002 14.6419 18.3988 15.8585 17.9313C16.4679 17.697 16.9244 17.4308 17.2181 17.1635C17.5118 16.8962 17.5998 16.6718 17.5998 16.5002C17.5998 16.3286 17.5118 16.1042 17.2181 15.8369C16.9244 15.5696 16.4679 15.3034 15.8585 15.0691C15.1526 14.8072 14.4217 14.6185 13.6772 14.5059L14.6188 13.5643C15.2161 13.6941 15.765 13.8547 16.2534 14.0417C16.9365 14.3057 17.5283 14.6324 17.9584 15.0229C18.3874 15.4134 18.6998 15.9117 18.6998 16.5002C18.6998 17.0887 18.3874 17.587 17.9584 17.9775C17.5294 18.368 16.9365 18.6947 16.2534 18.9576C14.8817 19.4856 13.0238 19.8002 10.9998 19.8002C8.9758 19.8002 7.1179 19.4856 5.7462 18.9576C5.0631 18.6947 4.4713 18.368 4.0412 17.9775C3.6122 17.587 3.2998 17.0876 3.2998 16.5002C3.2998 15.9117 3.6122 15.4134 4.0412 15.0229C4.4702 14.6324 5.0631 14.3068 5.7462 14.0428Z" fill="#4CAF50"/>
</svg>
