<svg width="28" height="28" viewBox="0 0 28 28" fill="none" xmlns="http://www.w3.org/2000/svg">
<path d="M22.4666 17.3985C21.4176 18.0362 20.2128 18.3715 18.9852 18.3676C17.9568 18.3594 16.94 18.1491 15.9927 17.7485C15.2627 18.7792 14.8719 20.0117 14.8749 21.2748V24.5002C14.8752 24.6202 14.8508 24.7389 14.8032 24.849C14.7557 24.9592 14.686 25.0583 14.5985 25.1404C14.511 25.2224 14.4076 25.2856 14.2946 25.326C14.1817 25.3664 14.0616 25.3832 13.942 25.3752C13.717 25.3557 13.5079 25.2518 13.3563 25.0844C13.2048 24.9171 13.1221 24.6986 13.1249 24.4729V23.1123L8.90086 18.8882C8.27293 19.1225 7.60885 19.245 6.93867 19.2502C6.01604 19.2526 5.11068 19.0002 4.32242 18.5207C1.93914 17.0726 0.656169 13.7399 0.90445 9.60226C0.916951 9.3882 1.00762 9.18618 1.15924 9.03455C1.31087 8.88293 1.51289 8.79226 1.72695 8.77976C5.86461 8.53585 9.19726 9.81445 10.641 12.1977C11.2082 13.1319 11.4559 14.2253 11.3465 15.3127C11.3397 15.397 11.3086 15.4775 11.2571 15.5444C11.2055 15.6114 11.1356 15.662 11.0559 15.6901C10.9762 15.7182 10.8901 15.7227 10.8079 15.7028C10.7257 15.683 10.651 15.6399 10.5929 15.5785L8.49289 13.3801C8.32746 13.2229 8.10718 13.1366 7.87901 13.1395C7.65084 13.1424 7.43284 13.2344 7.27149 13.3957C7.11014 13.5571 7.0182 13.7751 7.01528 14.0032C7.01236 14.2314 7.09869 14.4517 7.25586 14.6171L13.149 20.6601C13.1555 20.5748 13.1632 20.4894 13.172 20.4052C13.3633 18.7829 14.0792 17.2675 15.2107 16.0893L20.744 10.2421C20.9082 10.0781 21.0005 9.85552 21.0006 9.62343C21.0007 9.39134 20.9086 9.16871 20.7445 9.00453C20.5805 8.84034 20.3579 8.74805 20.1259 8.74794C19.8938 8.74784 19.6711 8.83994 19.5069 9.00398L14.1476 14.6718C14.0939 14.7286 14.026 14.77 13.951 14.7917C13.8759 14.8134 13.7964 14.8146 13.7207 14.7952C13.645 14.7758 13.5759 14.7365 13.5206 14.6813C13.4652 14.6261 13.4257 14.5571 13.406 14.4815C12.8876 12.5696 13.1162 10.6665 14.106 9.03242C16.0595 5.80804 20.6051 4.08211 26.2663 4.41461C26.4804 4.42711 26.6824 4.51778 26.834 4.6694C26.9857 4.82102 27.0763 5.02304 27.0888 5.23711C27.4169 10.8994 25.691 15.4451 22.4666 17.3985Z" fill="#1D1D1D"/>
</svg>
