<svg width="28" height="28" viewBox="0 0 28 28" fill="none" xmlns="http://www.w3.org/2000/svg">
<path d="M6.99984 11.6662C6.99984 11.6662 13.9998 16.3329 13.9998 24.4995M17.0927 13.0464C18.0171 13.7363 19.159 14.0703 20.3095 13.9872C21.46 13.9041 22.5421 13.4094 23.3577 12.5937C26.1857 9.76688 25.621 3.54622 25.621 3.54622C25.621 3.54622 19.3992 2.98038 16.5723 5.80838C16.04 6.33867 15.64 6.98692 15.4049 7.70061C15.1698 8.41429 15.1061 9.17333 15.219 9.91622" stroke="#1D1D1D" stroke-width="1.5" stroke-linecap="round" stroke-linejoin="round"/>
<path d="M10.542 14.9536C11.2867 14.1435 11.6895 13.077 11.6662 11.9768C11.6429 10.8767 11.1954 9.82816 10.4172 9.05027C7.90417 6.53726 2.37417 7.0401 2.37417 7.0401C2.37417 7.0401 1.8725 12.5701 4.3855 15.0831C4.80292 15.5013 5.30279 15.828 5.85333 16.0425C6.40387 16.257 6.99303 16.3546 7.58333 16.3291M21 8.16593C21 8.16593 14 13.9993 14 24.4993" stroke="#1D1D1D" stroke-width="1.5" stroke-linecap="round" stroke-linejoin="round"/>
</svg>
