<svg width="28" height="28" viewBox="0 0 28 28" fill="none" xmlns="http://www.w3.org/2000/svg">
<path d="M20.6824 3.28778C20.585 2.89826 20.235 2.625 19.8335 2.625C19.432 2.625 19.082 2.89826 18.9846 3.28778C18.7177 4.35556 18.3392 5.06932 17.8294 5.5792C17.3195 6.08907 16.6057 6.46751 15.5379 6.73446C15.1484 6.83184 14.8752 7.18182 14.8752 7.58333C14.8752 7.98484 15.1484 8.33483 15.5379 8.43221C16.6057 8.69915 17.3195 9.07759 17.8294 9.58747C18.3392 10.0973 18.7177 10.8111 18.9846 11.8789C19.082 12.2684 19.432 12.5417 19.8335 12.5417C20.235 12.5417 20.585 12.2684 20.6824 11.8789C20.9493 10.8111 21.3278 10.0973 21.8376 9.58747C22.3475 9.07759 23.0613 8.69915 24.129 8.43221C24.5186 8.33483 24.7918 7.98484 24.7918 7.58333C24.7918 7.18182 24.5186 6.83184 24.129 6.73446C23.0613 6.46751 22.3475 6.08907 21.8376 5.5792C21.3278 5.06932 20.9493 4.35556 20.6824 3.28778Z" fill="#1D1D1D"/>
<path d="M12.5157 7.95445C12.4183 7.56493 12.0683 7.29167 11.6668 7.29167C11.2653 7.29167 10.9153 7.56493 10.818 7.95445C10.301 10.0222 9.54757 11.486 8.47519 12.5584C7.40282 13.6307 5.93905 14.3842 3.87128 14.9011C3.48176 14.9985 3.2085 15.3485 3.2085 15.75C3.2085 16.1515 3.48176 16.5015 3.87128 16.5989C5.93905 17.1158 7.40282 17.8693 8.47519 18.9416C9.54757 20.014 10.301 21.4778 10.818 23.5456C10.9153 23.9351 11.2653 24.2083 11.6668 24.2083C12.0683 24.2083 12.4183 23.9351 12.5157 23.5456C13.0326 21.4778 13.7861 20.014 14.8585 18.9416C15.9308 17.8693 17.3946 17.1158 19.4624 16.5989C19.8519 16.5015 20.1252 16.1515 20.1252 15.75C20.1252 15.3485 19.8519 14.9985 19.4624 14.9011C17.3946 14.3842 15.9308 13.6307 14.8585 12.5584C13.7861 11.486 13.0326 10.0222 12.5157 7.95445Z" fill="#1D1D1D"/>
<path d="M19.224 20.2044C19.1267 19.8149 18.7767 19.5417 18.3752 19.5417C17.9737 19.5417 17.6237 19.8149 17.5263 20.2044C17.4052 20.6889 17.2455 20.9652 17.0637 21.1469C16.882 21.3287 16.6057 21.4883 16.1213 21.6095C15.7318 21.7068 15.4585 22.0568 15.4585 22.4583C15.4585 22.8598 15.7318 23.2098 16.1213 23.3072C16.6057 23.4283 16.882 23.588 17.0637 23.7698C17.2455 23.9515 17.4052 24.2278 17.5263 24.7122C17.6237 25.1017 17.9737 25.375 18.3752 25.375C18.7767 25.375 19.1267 25.1017 19.224 24.7122C19.3451 24.2278 19.5048 23.9515 19.6866 23.7698C19.8683 23.588 20.1446 23.4283 20.629 23.3072C21.0186 23.2098 21.2918 22.8598 21.2918 22.4583C21.2918 22.0568 21.0186 21.7068 20.629 21.6095C20.1446 21.4883 19.8683 21.3287 19.6866 21.1469C19.5048 20.9652 19.3451 20.6889 19.224 20.2044Z" fill="#1D1D1D"/>
</svg>
