<svg width="22" height="22" viewBox="0 0 22 22" fill="none" xmlns="http://www.w3.org/2000/svg">
<path d="M10.2366 19.2498C9.73853 19.2498 9.26431 19.1466 8.81392 18.94C8.36353 18.7334 7.99075 18.4325 7.69559 18.0371L3.35059 12.2887L3.59259 12.0238C3.74536 11.8557 3.92686 11.753 4.13709 11.7158C4.34731 11.6785 4.54775 11.7154 4.73842 11.8267L7.5095 13.1925V6.20567C7.5095 6.07611 7.5535 5.96734 7.6415 5.87934C7.7295 5.79134 7.83859 5.74734 7.96875 5.74734C8.09892 5.74734 8.20861 5.79134 8.29784 5.87934C8.38706 5.96734 8.43167 6.07611 8.43167 6.20567V14.749L5.15092 13.1265L8.48667 17.532C8.69567 17.8033 8.95539 18.005 9.26584 18.137C9.57567 18.2684 9.89956 18.3341 10.2375 18.3341H14.1911C14.8364 18.3341 15.3824 18.1135 15.8292 17.6723C16.2765 17.2304 16.5002 16.6868 16.5002 16.0415V12.7983C16.5002 12.4286 16.3749 12.1188 16.1243 11.8688C15.875 11.6183 15.5655 11.493 15.1958 11.493H10.9699V10.5763H15.1958C15.813 10.5763 16.3373 10.7924 16.7688 11.2244C17.2002 11.6565 17.4162 12.1811 17.4168 12.7983V16.0406C17.4168 16.9322 17.1009 17.69 16.469 18.3139C15.8377 18.9379 15.0784 19.2498 14.1911 19.2498H10.2366ZM4.79709 8.039C4.63392 7.76156 4.51047 7.46823 4.42675 7.159C4.34303 6.85039 4.30117 6.53261 4.30117 6.20567C4.30117 5.18389 4.65714 4.31734 5.36909 3.606C6.07981 2.89406 6.94545 2.53809 7.966 2.53809C8.29784 2.53809 8.61347 2.57903 8.91292 2.66092C9.21236 2.7422 9.50081 2.85861 9.77825 3.01017C10.3558 3.33711 10.8095 3.78322 11.1395 4.3485C11.4695 4.91378 11.6345 5.5307 11.6345 6.19925C11.6345 6.53292 11.5929 6.85375 11.5098 7.16175C11.4267 7.46975 11.3033 7.76186 11.1395 8.03809L10.3512 7.57975C10.4734 7.36586 10.5651 7.14831 10.6262 6.92709C10.6873 6.70586 10.7178 6.46509 10.7178 6.20475C10.7178 5.71586 10.5919 5.25753 10.3402 4.82975C10.0884 4.40198 9.74831 4.06586 9.31992 3.82142C9.12131 3.6992 8.90742 3.60753 8.67825 3.54642C8.44909 3.48531 8.21228 3.45475 7.96784 3.45475C7.20395 3.45475 6.55464 3.72211 6.01992 4.25684C5.4852 4.79156 5.21784 5.44117 5.21784 6.20567C5.21784 6.46539 5.24839 6.70617 5.3095 6.928C5.37061 7.14984 5.46228 7.36739 5.5845 7.58067L4.79709 8.039ZM12.8986 3.82234L13.3569 3.01017C13.9344 3.33711 14.3882 3.78322 14.7182 4.3485C15.0482 4.91378 15.2132 5.5307 15.2132 6.19925C15.2132 6.53292 15.1716 6.85375 15.0885 7.16175C15.0048 7.46853 14.8813 7.76064 14.7182 8.03809L13.9298 7.57975C14.0521 7.36586 14.1437 7.14831 14.2048 6.92709C14.2659 6.70586 14.2965 6.46509 14.2965 6.20475C14.2965 5.71586 14.1706 5.25753 13.9188 4.82975C13.6671 4.40198 13.327 4.06678 12.8986 3.82234Z" fill="#FFA726"/>
</svg>
