<svg width="20" height="20" viewBox="0 0 20 20" fill="none" xmlns="http://www.w3.org/2000/svg">
<path d="M10 12V18" stroke="#42A5F5" stroke-linecap="round" stroke-linejoin="round"/>
<path d="M10 12C11.1046 12 12 11.1046 12 10C12 8.89543 11.1046 8 10 8C8.89543 8 8 8.89543 8 10C8 11.1046 8.89543 12 10 12Z" fill="#42A5F5" stroke="#42A5F5" stroke-linecap="round" stroke-linejoin="round"/>
<path d="M4.34304 15.6567C3.22427 14.5379 2.46237 13.1125 2.15371 11.5607C1.84505 10.0088 2.00347 8.40034 2.60896 6.93856C3.21444 5.47678 4.23979 4.22736 5.55534 3.34831C6.8709 2.46926 8.41757 2.00004 9.99979 2C11.582 2.00004 13.1287 2.46926 14.4442 3.34831C15.7598 4.22736 16.7851 5.47678 17.3906 6.93856C17.9961 8.40034 18.1545 10.0088 17.8459 11.5607C17.5372 13.1125 16.7753 14.5379 15.6565 15.6567" stroke="#42A5F5" stroke-linecap="round" stroke-linejoin="round"/>
<path d="M6.46443 13.5355C5.76519 12.8362 5.28899 11.9453 5.09607 10.9754C4.90315 10.0055 5.00217 9.00021 5.3806 8.08659C5.75903 7.17297 6.39989 6.39208 7.22212 5.84267C8.04435 5.29327 9.01104 5.00001 9.99993 5C10.9888 5.00001 11.9555 5.29327 12.7778 5.84267C13.6 6.39208 14.2408 7.17297 14.6193 8.08659C14.9977 9.00021 15.0967 10.0055 14.9038 10.9754C14.7109 11.9453 14.2347 12.8362 13.5354 13.5355" stroke="#42A5F5" stroke-linecap="round" stroke-linejoin="round"/>
</svg>
