<svg width="20" height="20" viewBox="0 0 20 20" fill="none" xmlns="http://www.w3.org/2000/svg">
<path d="M14.5835 4.16699C15.2739 4.16699 15.8335 4.72664 15.8335 5.41699C15.8335 6.10735 15.2739 6.66699 14.5835 6.66699C13.8931 6.66699 13.3335 6.10735 13.3335 5.41699C13.3335 4.72664 13.8931 4.16699 14.5835 4.16699Z" stroke="#42A5F5" stroke-width="1.1" stroke-linecap="round" stroke-linejoin="round"/>
<path d="M2.3119 9.28657C1.47606 10.2199 1.45856 11.6282 2.22523 12.6199C3.71441 14.5531 5.44708 16.2857 7.38023 17.7749C8.3719 18.5416 9.78023 18.5241 10.7136 17.6882C13.2365 15.4314 15.6073 13.01 17.8102 10.4399C18.0326 10.1843 18.1696 9.86553 18.2019 9.52824C18.3386 8.03157 18.6211 3.7199 17.4502 2.5499C16.2794 1.3799 11.9686 1.66157 10.4719 1.79907C10.1346 1.83138 9.81585 1.96832 9.56023 2.19074C6.99013 4.39341 4.56872 6.76388 2.3119 9.28657Z" stroke="#42A5F5" stroke-width="1.1"/>
<path d="M5.8335 11.667L8.3335 14.167" stroke="#42A5F5" stroke-width="1.1" stroke-linecap="round" stroke-linejoin="round"/>
</svg>
