<svg width="28" height="28" viewBox="0 0 28 28" fill="none" xmlns="http://www.w3.org/2000/svg">
<path d="M6.30032 11.6667L12.8831 14.6588C13.371 14.8806 13.6149 14.9915 13.8725 15.0135C13.9576 15.0208 14.0431 15.0208 14.1282 15.0135C14.3857 14.9915 14.6297 14.8806 15.1176 14.6588L21.7003 11.6667M6.30032 11.6667C4.49016 12.4895 3.58507 12.9009 3.37444 13.5093C3.26439 13.8272 3.26439 14.1728 3.37444 14.4907C3.58507 15.0991 4.49016 15.5105 6.30032 16.3333M6.30032 11.6667C4.49016 10.8439 3.58507 10.4325 3.37444 9.82405C3.26439 9.50616 3.26439 9.16051 3.37444 8.84262C3.58507 8.23421 4.49016 7.8228 6.30032 7L12.8942 4.00277C13.3774 3.78313 13.619 3.67332 13.8742 3.65072C13.9585 3.64325 14.0433 3.64293 14.1276 3.64976C14.3829 3.67043 14.6253 3.77842 15.1102 3.9944L18.0412 5.30007M6.30032 16.3333L12.8831 19.3255C13.371 19.5473 13.6149 19.6582 13.8725 19.6802C13.9576 19.6875 14.0431 19.6875 14.1282 19.6802C14.3857 19.6582 14.6297 19.5473 15.1176 19.3255L21.7003 16.3333M6.30032 16.3333C4.49016 17.1561 3.58507 17.5675 3.37444 18.1759C3.26439 18.4938 3.26439 18.8395 3.37444 19.1574C3.58507 19.7658 4.49016 20.1772 6.30032 21L12.8831 23.9922C13.371 24.2139 13.6149 24.3248 13.8725 24.3469C13.9576 24.3541 14.0431 24.3541 14.1282 24.3469C14.3857 24.3248 14.6297 24.2139 15.1176 23.9922L21.7003 21C23.5105 20.1772 24.4156 19.7658 24.6262 19.1574C24.7363 18.8395 24.7363 18.4938 24.6262 18.1759C24.4156 17.5675 23.5105 17.1561 21.7003 16.3333M21.7003 16.3333C23.5105 15.5105 24.4156 15.0991 24.6262 14.4907C24.7363 14.1728 24.7363 13.8272 24.6262 13.5093C24.4156 12.9009 23.5105 12.4895 21.7003 11.6667M21.7003 11.6667L22.3819 11.3569C23.6046 10.8011 24.216 10.5232 24.4531 10.1712C24.7942 9.66466 24.7943 9.00189 24.4531 8.49535C24.2161 8.14335 23.6047 7.86541 22.382 7.30954L22.2756 7.26151" stroke="#1D1D1D" stroke-width="1.5" stroke-linecap="round" stroke-linejoin="round"/>
</svg>
