<svg width="22" height="22" viewBox="0 0 22 22" fill="none" xmlns="http://www.w3.org/2000/svg">
<path d="M19.8002 7.83311V14.3C19.8002 14.8835 19.5684 15.4431 19.1558 15.8556C18.7432 16.2682 18.1837 16.5 17.6002 16.5H4.4002C3.81672 16.5 3.25714 16.2682 2.84456 15.8556C2.43198 15.4431 2.2002 14.8835 2.2002 14.3V7.70001C2.2002 7.11653 2.43198 6.55695 2.84456 6.14437C3.25714 5.73179 3.81672 5.50001 4.4002 5.50001H17.4671L16.3671 6.60001H4.4002C4.10846 6.60001 3.82867 6.7159 3.62238 6.92219C3.41609 7.12848 3.3002 7.40827 3.3002 7.70001V14.3C3.3002 14.5917 3.41609 14.8715 3.62238 15.0778C3.82867 15.2841 4.10846 15.4 4.4002 15.4H17.6002C17.8919 15.4 18.1717 15.2841 18.378 15.0778C18.5843 14.8715 18.7002 14.5917 18.7002 14.3V8.93311L19.8002 7.83311ZM4.4002 9.35001C4.4002 9.20414 4.45814 9.06424 4.56129 8.9611C4.66443 8.85795 4.80433 8.80001 4.9502 8.80001H7.1502C7.29606 8.80001 7.43596 8.85795 7.5391 8.9611C7.64225 9.06424 7.70019 9.20414 7.70019 9.35001C7.70019 9.49588 7.64225 9.63577 7.5391 9.73891C7.43596 9.84206 7.29606 9.90001 7.1502 9.90001H4.9502C4.80433 9.90001 4.66443 9.84206 4.56129 9.73891C4.45814 9.63577 4.4002 9.49588 4.4002 9.35001ZM4.4002 12.65C4.4002 12.5041 4.45814 12.3642 4.56129 12.2611C4.66443 12.158 4.80433 12.1 4.9502 12.1H9.90019C10.0461 12.1 10.186 12.158 10.2891 12.2611C10.3922 12.3642 10.4502 12.5041 10.4502 12.65C10.4502 12.7959 10.3922 12.9358 10.2891 13.0389C10.186 13.1421 10.0461 13.2 9.90019 13.2H4.9502C4.80433 13.2 4.66443 13.1421 4.56129 13.0389C4.45814 12.9358 4.4002 12.7959 4.4002 12.65ZM19.6396 5.66061C19.6908 5.7117 19.7315 5.77239 19.7592 5.83921C19.7869 5.90603 19.8012 5.97766 19.8012 6.05001C19.8012 6.12235 19.7869 6.19398 19.7592 6.2608C19.7315 6.32762 19.6908 6.38832 19.6396 6.43941L13.0396 13.0394C12.9363 13.1427 12.7962 13.2007 12.6502 13.2007C12.5041 13.2007 12.3641 13.1427 12.2608 13.0394C12.1575 12.9361 12.0995 12.7961 12.0995 12.65C12.0995 12.504 12.1575 12.3639 12.2608 12.2606L18.8608 5.66061C18.9119 5.60939 18.9726 5.56875 19.0394 5.54102C19.1062 5.5133 19.1779 5.49902 19.2502 5.49902C19.3225 5.49902 19.3942 5.5133 19.461 5.54102C19.5278 5.56875 19.5885 5.60939 19.6396 5.66061Z" fill="#FFA726"/>
</svg>
