<svg width="28" height="28" viewBox="0 0 28 28" fill="none" xmlns="http://www.w3.org/2000/svg">
<path d="M6.08707 10.654C4.56547 9.88176 3.80467 9.49564 3.67596 8.92069C3.63571 8.74087 3.63571 8.55438 3.67596 8.37456C3.80467 7.79961 4.56547 7.41349 6.08707 6.64124L12.9822 3.14181C13.4251 2.91698 13.6466 2.80457 13.8832 2.78228C13.9612 2.77494 14.0397 2.77494 14.1177 2.78228C14.3543 2.80457 14.5758 2.91698 15.0187 3.14181L21.9138 6.64124C23.4354 7.41349 24.1962 7.79961 24.3249 8.37456C24.3652 8.55438 24.3652 8.74087 24.3249 8.92069C24.1962 9.49564 23.4354 9.88176 21.9138 10.654L15.0187 14.1534C14.5758 14.3783 14.3543 14.4907 14.1177 14.513C14.0397 14.5203 13.9612 14.5203 13.8832 14.513C13.6466 14.4907 13.4251 14.3783 12.9822 14.1534L6.08707 10.654Z" fill="#1D1D1D"/>
<path d="M5.98916 12.5668C5.90167 12.5224 5.85793 12.5002 5.81495 12.4823C5.507 12.3538 5.16047 12.3538 4.85252 12.4823C4.80954 12.5002 4.7658 12.5224 4.67831 12.5668C4.3811 12.7176 4.23249 12.7931 4.14502 12.8588C3.47936 13.3588 3.47936 14.3576 4.14502 14.8576C4.23249 14.9234 4.3811 14.9988 4.67831 15.1496L12.9822 19.364C13.4251 19.5888 13.6466 19.7013 13.8832 19.7235C13.9612 19.7309 14.0397 19.7309 14.1177 19.7235C14.3543 19.7013 14.5758 19.5888 15.0187 19.364L23.3226 15.1496C23.6198 14.9988 23.7684 14.9234 23.8559 14.8576C24.5215 14.3576 24.5215 13.3588 23.8559 12.8588C23.7684 12.7931 23.6198 12.7176 23.3226 12.5668C23.2351 12.5224 23.1914 12.5002 23.1484 12.4823C22.8404 12.3538 22.4939 12.3538 22.1859 12.4823C22.143 12.5002 22.0992 12.5224 22.0117 12.5668L15.0187 16.1159C14.5758 16.3407 14.3543 16.4532 14.1177 16.4754C14.0397 16.4828 13.9612 16.4828 13.8832 16.4754C13.6466 16.4532 13.4251 16.3407 12.9822 16.1159L5.98916 12.5668Z" fill="#1D1D1D"/>
<path d="M23.3226 17.7774C23.2351 17.733 23.1914 17.7108 23.1484 17.6929C22.8404 17.5644 22.4939 17.5644 22.1859 17.6929C22.143 17.7108 22.0992 17.733 22.0117 17.7774L15.0187 21.3265C14.5758 21.5513 14.3543 21.6637 14.1177 21.686C14.0397 21.6934 13.9612 21.6934 13.8832 21.686C13.6466 21.6637 13.4251 21.5513 12.9822 21.3265L5.98916 17.7774C5.90167 17.733 5.85793 17.7108 5.81495 17.6929C5.507 17.5644 5.16047 17.5644 4.85252 17.6929C4.80954 17.7108 4.7658 17.733 4.67831 17.7774C4.3811 17.9282 4.23249 18.0037 4.14502 18.0694C3.47936 18.5694 3.47936 19.5682 4.14502 20.0682C4.23249 20.1339 4.3811 20.2094 4.67831 20.3602L12.9822 24.5746C13.4251 24.7994 13.6466 24.9118 13.8832 24.9341C13.9612 24.9415 14.0397 24.9415 14.1177 24.9341C14.3543 24.9118 14.5758 24.7994 15.0187 24.5746L23.3226 20.3602C23.6198 20.2094 23.7684 20.1339 23.8559 20.0682C24.5215 19.5682 24.5215 18.5694 23.8559 18.0694C23.7684 18.0037 23.6198 17.9282 23.3226 17.7774Z" fill="#1D1D1D"/>
</svg>
