<svg width="20" height="20" viewBox="0 0 20 20" fill="none" xmlns="http://www.w3.org/2000/svg">
<path fill-rule="evenodd" clip-rule="evenodd" d="M10.2082 2.36199C9.82484 2.29699 9.3015 2.29199 8.35817 2.29199C6.76067 2.29199 5.62484 2.29366 4.76484 2.40866C3.9215 2.52116 3.43734 2.73366 3.08484 3.08533C2.73234 3.43699 2.52067 3.92116 2.40817 4.75949C2.29317 5.61616 2.2915 6.74449 2.2915 8.33449V11.6678C2.2915 13.2562 2.29317 14.3845 2.40817 15.2412C2.52067 16.0795 2.73234 16.5628 3.08484 16.9162C3.43734 17.2678 3.92067 17.4795 4.759 17.592C5.61567 17.7078 6.744 17.7087 8.33317 17.7087H11.6665C13.2557 17.7087 14.3848 17.707 15.2415 17.592C16.079 17.4795 16.5623 17.2678 16.9148 16.9153C17.2673 16.5628 17.479 16.0795 17.5915 15.2412C17.7065 14.3853 17.7082 13.2562 17.7082 11.667V11.3028C17.7082 10.0228 17.6998 9.41616 17.5632 8.95866H14.9548C14.0107 8.95866 13.2398 8.95866 12.6298 8.87699C11.994 8.79116 11.4423 8.60616 11.0015 8.16533C10.5607 7.72449 10.3757 7.17366 10.2898 6.53616C10.2082 5.92783 10.2082 5.15616 10.2082 4.21116V2.36199ZM11.4582 3.00866V4.16699C11.4582 5.16699 11.4598 5.85366 11.529 6.36949C11.5957 6.86783 11.7157 7.11199 11.8857 7.28116C12.0557 7.45033 12.299 7.57116 12.7973 7.63783C13.3132 7.70699 13.9998 7.70866 14.9998 7.70866H16.6832C16.3634 7.40418 16.0383 7.10524 15.7082 6.81199L12.409 3.84283C12.0978 3.5583 11.7808 3.28018 11.4582 3.00866ZM8.479 1.04199C9.63317 1.04199 10.379 1.04199 11.0648 1.30449C11.7507 1.56783 12.3023 2.06449 13.1565 2.83366L13.2457 2.91366L16.544 5.88283L16.6482 5.97616C17.6348 6.86366 18.2732 7.43783 18.6157 8.20783C18.9582 8.97783 18.959 9.83616 18.9582 11.1628V11.7137C18.9582 13.2453 18.9582 14.4587 18.8307 15.4078C18.699 16.3845 18.4223 17.1753 17.799 17.7995C17.1748 18.4228 16.384 18.6995 15.4073 18.8312C14.4573 18.9587 13.2448 18.9587 11.7132 18.9587H8.2865C6.75484 18.9587 5.5415 18.9587 4.59234 18.8312C3.61567 18.6995 2.82484 18.4228 2.20067 17.7995C1.57734 17.1753 1.30067 16.3845 1.169 15.4078C1.0415 14.4578 1.0415 13.2453 1.0415 11.7137V8.28783C1.0415 6.75616 1.0415 5.54283 1.169 4.59366C1.30067 3.61699 1.57734 2.82616 2.20067 2.20199C2.82567 1.57783 3.61817 1.30199 4.599 1.17033C5.55234 1.04283 6.7715 1.04283 8.3115 1.04283H8.47984" fill="#1B5E20"/>
<path fill-rule="evenodd" clip-rule="evenodd" d="M8.74797 12.0335C8.87174 12.1435 8.94678 12.2981 8.95663 12.4634C8.96647 12.6287 8.91031 12.7912 8.80047 12.9151L6.57797 15.4151C6.51933 15.4811 6.44739 15.5339 6.36689 15.57C6.28638 15.6062 6.19914 15.6248 6.11089 15.6248C6.02264 15.6248 5.93539 15.6062 5.85488 15.57C5.77438 15.5339 5.70244 15.4811 5.6438 15.4151L4.53214 14.1651C4.47764 14.1037 4.43577 14.0322 4.40891 13.9546C4.38205 13.8771 4.37074 13.7949 4.37562 13.713C4.38049 13.6311 4.40146 13.5509 4.43732 13.477C4.47319 13.4032 4.52324 13.3371 4.58464 13.2826C4.64603 13.2281 4.71756 13.1863 4.79513 13.1594C4.87271 13.1325 4.95481 13.1212 5.03676 13.1261C5.11871 13.131 5.19889 13.1519 5.27274 13.1878C5.34658 13.2237 5.41264 13.2737 5.46714 13.3351L6.11047 14.0601L7.86547 12.0851C7.92003 12.0237 7.98617 11.9735 8.06012 11.9377C8.13407 11.9018 8.21437 11.8809 8.29642 11.8761C8.37847 11.8713 8.46066 11.8827 8.53829 11.9097C8.61591 11.9367 8.68662 11.9788 8.74797 12.0335Z" fill="#1B5E20"/>
</svg>
